<svg width="36" height="36" viewBox="0 0 36 36" fill="none" xmlns="http://www.w3.org/2000/svg">
<circle cx="18" cy="17.9525" r="15.6309" stroke="#1B75BB" stroke-width="2"/>
<path d="M17.1198 23.7245V15.8045H18.8798V23.7245H17.1198ZM17.9998 14.3885C17.6852 14.3885 17.4132 14.2872 17.1838 14.0845C16.9545 13.8818 16.8398 13.6152 16.8398 13.2845C16.8398 12.9592 16.9545 12.6952 17.1838 12.4925C17.4132 12.2845 17.6852 12.1805 17.9998 12.1805C18.3145 12.1805 18.5865 12.2845 18.8158 12.4925C19.0452 12.6952 19.1598 12.9592 19.1598 13.2845C19.1598 13.6152 19.0452 13.8818 18.8158 14.0845C18.5865 14.2872 18.3145 14.3885 17.9998 14.3885Z" fill="#1B75BB"/>
</svg>
