<svg width="36" height="36" viewBox="0 0 36 36" fill="none" xmlns="http://www.w3.org/2000/svg">
<path fill-rule="evenodd" clip-rule="evenodd" d="M32.5886 27.1776L18.8653 3.40815C18.4804 2.74149 17.5181 2.74149 17.1332 3.40816L3.40993 27.1776C3.02504 27.8443 3.50616 28.6776 4.27597 28.6776H31.7226C32.4924 28.6776 32.9735 27.8443 32.5886 27.1776ZM20.5973 2.40815C19.4426 0.408155 16.5559 0.40816 15.4012 2.40816L1.67788 26.1776C0.523182 28.1776 1.96656 30.6776 4.27597 30.6776H31.7226C34.032 30.6776 35.4753 28.1776 34.3206 26.1776L20.5973 2.40815Z" fill="#EFC07E"/>
<path d="M17.1498 19.8336L16.8348 11.5176H19.1748L18.8598 19.8336H17.1498ZM18.0048 24.3876C17.6208 24.3876 17.2878 24.2646 17.0058 24.0186C16.7298 23.7726 16.5918 23.4516 16.5918 23.0556C16.5918 22.7856 16.6548 22.5516 16.7808 22.3536C16.9068 22.1496 17.0778 21.9936 17.2938 21.8856C17.5098 21.7716 17.7468 21.7146 18.0048 21.7146C18.3948 21.7146 18.7248 21.8376 18.9948 22.0836C19.2708 22.3236 19.4088 22.6476 19.4088 23.0556C19.4088 23.3196 19.3458 23.5536 19.2198 23.7576C19.0938 23.9556 18.9228 24.1086 18.7068 24.2166C18.4968 24.3306 18.2628 24.3876 18.0048 24.3876Z" fill="#EFC07E"/>
</svg>
