<svg width="26" height="27" viewBox="0 0 26 27" fill="none" xmlns="http://www.w3.org/2000/svg">
<path d="M7.41259 24.2761H18.5883C20.7666 24.2761 21.8505 23.1711 21.8505 20.9823V11.4272C21.8505 10.0697 21.7032 9.48036 20.8613 8.61749L15.0525 2.71391C14.2527 1.89311 13.6002 1.71423 12.4111 1.71423H7.41259C5.24481 1.71423 4.15039 2.82971 4.15039 5.01855V20.9823C4.15039 23.1817 5.24481 24.2761 7.41259 24.2761ZM7.49677 22.5818C6.41286 22.5818 5.84462 22.0031 5.84462 20.9507V5.05011C5.84462 4.00831 6.41286 3.40846 7.50728 3.40846H12.1796V9.52248C12.1796 10.8484 12.8531 11.5008 14.158 11.5008H20.1562V20.9507C20.1562 22.0031 19.5985 22.5818 18.5041 22.5818H7.49677ZM14.3474 9.91184C13.937 9.91184 13.7686 9.74347 13.7686 9.32254V3.7347L19.83 9.91184H14.3474ZM16.873 14.3948H8.88582C8.50701 14.3948 8.23339 14.6789 8.23339 15.0367C8.23339 15.405 8.50701 15.6891 8.88582 15.6891H16.873C17.2413 15.6891 17.5254 15.405 17.5254 15.0367C17.5254 14.6789 17.2413 14.3948 16.873 14.3948ZM16.873 18.0674H8.88582C8.50701 18.0674 8.23339 18.362 8.23339 18.7303C8.23339 19.0881 8.50701 19.3617 8.88582 19.3617H16.873C17.2413 19.3617 17.5254 19.0881 17.5254 18.7303C17.5254 18.362 17.2413 18.0674 16.873 18.0674Z" fill="#ADD1ED"/>
</svg>
