<svg width="16" height="24" viewBox="0 0 16 24" fill="none" xmlns="http://www.w3.org/2000/svg">
<circle cx="8" cy="13.1152" r="7.25" stroke="#5CCD45" stroke-width="1.5"/>
<path fill-rule="evenodd" clip-rule="evenodd" d="M11.7818 13.1152C11.7818 13.5294 11.446 13.8652 11.0318 13.8652L4.9658 13.8652C4.55159 13.8652 4.2158 13.5294 4.2158 13.1152C4.2158 12.7009 4.55158 12.3652 4.9658 12.3652L11.0318 12.3652C11.446 12.3652 11.7818 12.7009 11.7818 13.1152Z" fill="#5CCD45"/>
<path fill-rule="evenodd" clip-rule="evenodd" d="M7.99933 9.32502C8.41354 9.32502 8.74932 9.66082 8.74932 10.075L8.7492 16.1554C8.7492 16.5696 8.4134 16.9053 7.99919 16.9053C7.58498 16.9053 7.2492 16.5695 7.2492 16.1553L7.24932 10.075C7.24932 9.66079 7.58512 9.32501 7.99933 9.32502Z" fill="#5CCD45"/>
</svg>
