<svg width="20" height="21" viewBox="0 0 20 21" fill="none" xmlns="http://www.w3.org/2000/svg">
<g clip-path="url(#clip0_3347_5489)">
<path fill-rule="evenodd" clip-rule="evenodd" d="M10 2.67529C6.55563 2.67529 3.75 5.48092 3.75 8.92529C3.75 10.6685 4.46863 12.2481 5.625 13.3832V19.5503C5.625 19.6568 5.65224 19.7616 5.70412 19.8547C5.756 19.9477 5.8308 20.026 5.92143 20.082C6.01205 20.138 6.11549 20.1699 6.22192 20.1747C6.32835 20.1795 6.43424 20.157 6.52954 20.1094L10 18.3735L13.4705 20.1094C13.5658 20.157 13.6716 20.1795 13.7781 20.1747C13.8845 20.1699 13.9879 20.138 14.0786 20.082C14.1692 20.026 14.244 19.9477 14.2959 19.8547C14.3478 19.7616 14.375 19.6568 14.375 19.5503V13.3832C15.5314 12.2481 16.25 10.6685 16.25 8.92529C16.25 5.48092 13.4444 2.67529 10 2.67529ZM6.69194 12.6679C6.70878 12.6848 6.72456 12.7025 6.73923 12.7209C7.61364 13.4722 8.75222 13.9253 10 13.9253C11.2478 13.9253 12.3864 13.4722 13.2608 12.7209C13.2754 12.7025 13.2912 12.6848 13.3081 12.6679C13.3412 12.6348 13.3777 12.6057 13.4168 12.5811C14.3919 11.6697 15 10.3707 15 8.92529C15 6.15647 12.7688 3.92529 10 3.92529C7.23118 3.92529 5 6.15647 5 8.92529C5 10.3707 5.60806 11.6697 6.58323 12.5811C6.62228 12.6057 6.65878 12.6348 6.69194 12.6679ZM6.875 18.5396V14.3356C7.79502 14.8694 8.86269 15.1753 10 15.1753C11.1373 15.1753 12.205 14.8694 13.125 14.3356V18.5396L10.2795 17.1162C10.1927 17.0728 10.097 17.0502 10 17.0502C9.90296 17.0502 9.80725 17.0728 9.72046 17.1162L6.875 18.5396ZM8.20039 12.6902C8.06134 12.7644 7.89933 12.7835 7.74675 12.7438C7.59415 12.7042 7.46215 12.6087 7.37713 12.4763C7.2921 12.3439 7.26032 12.1844 7.28813 12.0297L7.65025 10.0254L6.17591 8.61708C6.09088 8.5359 6.03052 8.43247 6.00179 8.31864C5.97305 8.20482 5.97709 8.08523 6.01345 7.97359C6.04981 7.86196 6.11701 7.76281 6.20733 7.68752C6.29766 7.61224 6.40745 7.56387 6.5241 7.54797L8.54758 7.27226L9.43597 5.43852C9.48709 5.33266 9.56714 5.24333 9.66693 5.18082C9.76672 5.1183 9.88218 5.08514 10 5.08514C10.1179 5.08514 10.2333 5.1183 10.3331 5.18082C10.4329 5.24333 10.513 5.33266 10.5641 5.43852L11.4525 7.27226L13.476 7.54797C13.5926 7.56387 13.7024 7.61224 13.7927 7.68752C13.8831 7.76281 13.9503 7.86196 13.9866 7.97359C14.023 8.08523 14.027 8.20482 13.9983 8.31864C13.9695 8.43247 13.9092 8.5359 13.8242 8.61708L12.3498 10.0254L12.7119 12.0297C12.7328 12.1452 12.7206 12.2642 12.6767 12.3731C12.6328 12.482 12.559 12.5764 12.4637 12.6453C12.3685 12.7143 12.2556 12.7551 12.1382 12.763C12.0207 12.771 11.9034 12.7457 11.7997 12.6902L10 11.7272L8.20039 12.6902ZM10.2965 10.4697L11.2495 10.9794L11.0575 9.91727C11.0392 9.81591 11.0463 9.71161 11.0783 9.61366C11.1102 9.51572 11.166 9.42718 11.2406 9.35594L12.0215 8.60915L10.9501 8.46336C10.8477 8.44958 10.7504 8.41076 10.6667 8.35037C10.583 8.28998 10.5157 8.20989 10.4706 8.11724L10 7.14631L9.52948 8.11724C9.4844 8.20989 9.41702 8.28998 9.33336 8.35037C9.24969 8.41076 9.15234 8.44958 9.04997 8.46336L7.97854 8.60915L8.75948 9.35594C8.83408 9.42718 8.88984 9.51572 8.92178 9.61366C8.95372 9.71161 8.96085 9.81591 8.94253 9.91727L8.75053 10.9794L9.70357 10.4697C9.79471 10.4208 9.89656 10.3953 10 10.3953C10.1035 10.3953 10.2054 10.4208 10.2965 10.4697Z" fill="#1B75BB"/>
</g>
<defs>
<clipPath id="clip0_3347_5489">
<rect width="20" height="20" fill="white" transform="translate(0 0.425293)"/>
</clipPath>
</defs>
</svg>
