<svg width="64" height="17" viewBox="0 0 64 17" fill="none" xmlns="http://www.w3.org/2000/svg">
<path fill-rule="evenodd" clip-rule="evenodd" d="M53.8691 7.51474C54.1731 8.34474 54.988 8.93883 55.9454 8.93883C57.1625 8.93883 58.149 7.97895 58.149 6.79479C58.149 5.61068 57.1625 4.65076 55.9454 4.65076C54.733 4.65076 53.7493 5.60342 53.7419 6.78134C53.7941 7.02234 53.8367 7.26695 53.8691 7.51474ZM51.8932 14.3987C51.679 14.6578 51.4505 14.9046 51.209 15.138C52.5349 16.1136 54.1727 16.6899 55.9451 16.6899C60.3634 16.6899 63.9451 13.1082 63.9451 8.68994C63.9451 4.27166 60.3634 0.689941 55.9451 0.689941C54.1727 0.689941 52.5349 1.26633 51.209 2.24189C51.4505 2.47528 51.679 2.72212 51.8932 2.9812C53.0368 2.16807 54.4351 1.68994 55.9451 1.68994C59.8111 1.68994 62.9451 4.82395 62.9451 8.68994C62.9451 12.5559 59.8111 15.6899 55.9451 15.6899C54.4351 15.6899 53.0368 15.2118 51.8932 14.3987ZM52.9076 12.8809C53.3825 11.9844 53.7098 10.9977 53.8571 9.95324C54.4107 9.79946 55.0963 9.71644 55.9453 9.71644C58.2153 9.71644 59.3169 10.3098 59.8515 11.2624C60.1093 11.722 59.9198 12.2867 59.4762 12.5832C58.472 13.2544 57.2558 13.6472 55.9454 13.6472C54.8427 13.6472 53.8067 13.369 52.9076 12.8809Z" fill="#ADD1ED"/>
<path fill-rule="evenodd" clip-rule="evenodd" d="M42.1328 7.51474C42.4368 8.34474 43.2516 8.93883 44.2091 8.93883C45.4261 8.93883 46.4127 7.97895 46.4127 6.79479C46.4127 5.61068 45.4261 4.65076 44.2091 4.65076C42.9967 4.65076 42.013 5.60342 42.0055 6.78134C42.0578 7.02234 42.1004 7.26695 42.1328 7.51474ZM40.1569 14.3987C39.9427 14.6578 39.7142 14.9046 39.4727 15.138C40.7986 16.1136 42.4364 16.6899 44.2088 16.6899C48.6271 16.6899 52.2088 13.1082 52.2088 8.68994C52.2088 4.27166 48.6271 0.689941 44.2088 0.689941C42.4364 0.689941 40.7986 1.26633 39.4727 2.24189C39.7142 2.47528 39.9427 2.72212 40.1569 2.9812C41.3004 2.16807 42.6988 1.68994 44.2088 1.68994C48.0748 1.68994 51.2088 4.82395 51.2088 8.68994C51.2088 12.5559 48.0748 15.6899 44.2088 15.6899C42.6988 15.6899 41.3004 15.2118 40.1569 14.3987ZM41.1713 12.8809C41.6462 11.9844 41.9735 10.9977 42.1208 9.95324C42.6744 9.79946 43.36 9.71644 44.209 9.71644C46.4789 9.71644 47.5806 10.3098 48.1152 11.2624C48.373 11.722 48.1835 12.2867 47.7399 12.5832C46.7357 13.2544 45.5195 13.6472 44.2091 13.6472C43.1064 13.6472 42.0704 13.369 41.1713 12.8809Z" fill="#ADD1ED"/>
<path fill-rule="evenodd" clip-rule="evenodd" d="M30.3965 7.51474C30.7005 8.34474 31.5153 8.93883 32.4728 8.93883C33.6898 8.93883 34.6764 7.97895 34.6764 6.79479C34.6764 5.61068 33.6898 4.65076 32.4728 4.65076C31.2603 4.65076 30.2766 5.60342 30.2692 6.78134C30.3215 7.02234 30.364 7.26695 30.3965 7.51474ZM28.4206 14.3987C28.2064 14.6578 27.9779 14.9046 27.7363 15.138C29.0623 16.1136 30.7001 16.6899 32.4725 16.6899C36.8908 16.6899 40.4725 13.1082 40.4725 8.68994C40.4725 4.27166 36.8908 0.689941 32.4725 0.689941C30.7001 0.689941 29.0623 1.26633 27.7363 2.24189C27.9779 2.47528 28.2064 2.72212 28.4206 2.9812C29.5641 2.16807 30.9625 1.68994 32.4725 1.68994C36.3385 1.68994 39.4725 4.82395 39.4725 8.68994C39.4725 12.5559 36.3385 15.6899 32.4725 15.6899C30.9625 15.6899 29.5641 15.2118 28.4206 14.3987ZM29.435 12.8809C29.9099 11.9844 30.2372 10.9977 30.3845 9.95324C30.9381 9.79946 31.6237 9.71644 32.4727 9.71644C34.7426 9.71644 35.8443 10.3098 36.3789 11.2624C36.6367 11.722 36.4472 12.2867 36.0036 12.5832C34.9993 13.2544 33.7832 13.6472 32.4728 13.6472C31.37 13.6472 30.3341 13.369 29.435 12.8809Z" fill="#ADD1ED"/>
<path fill-rule="evenodd" clip-rule="evenodd" d="M18.6601 7.51474C18.9642 8.34474 19.779 8.93883 20.7364 8.93883C21.9535 8.93883 22.94 7.97895 22.94 6.79479C22.94 5.61068 21.9535 4.65076 20.7364 4.65076C19.524 4.65076 18.5403 5.60342 18.5329 6.78134C18.5851 7.02234 18.6277 7.26695 18.6601 7.51474ZM16.6842 14.3987C16.47 14.6578 16.2416 14.9046 16 15.138C17.326 16.1136 18.9637 16.6899 20.7362 16.6899C25.1544 16.6899 28.7362 13.1082 28.7362 8.68994C28.7362 4.27166 25.1544 0.689941 20.7362 0.689941C18.9637 0.689941 17.326 1.26633 16 2.24189C16.2416 2.47528 16.47 2.72212 16.6842 2.9812C17.8278 2.16807 19.2261 1.68994 20.7362 1.68994C24.6021 1.68994 27.7362 4.82395 27.7362 8.68994C27.7362 12.5559 24.6021 15.6899 20.7362 15.6899C19.2261 15.6899 17.8278 15.2118 16.6842 14.3987ZM17.6986 12.8809C18.1735 11.9844 18.5009 10.9977 18.6482 9.95324C19.2018 9.79946 19.8873 9.71644 20.7364 9.71644C23.0063 9.71644 24.1079 10.3098 24.6425 11.2624C24.9003 11.722 24.7108 12.2867 24.2673 12.5832C23.263 13.2544 22.0468 13.6472 20.7364 13.6472C19.6337 13.6472 18.5977 13.369 17.6986 12.8809Z" fill="#ADD1ED"/>
<path fill-rule="evenodd" clip-rule="evenodd" d="M1 8.68994C1 12.5559 4.13401 15.6899 8 15.6899C11.866 15.6899 15 12.5559 15 8.68994C15 4.82395 11.866 1.68994 8 1.68994C4.13401 1.68994 1 4.82395 1 8.68994ZM8 0.689941C3.58172 0.689941 0 4.27166 0 8.68994C0 13.1082 3.58172 16.6899 8 16.6899C12.4183 16.6899 16 13.1082 16 8.68994C16 4.27166 12.4183 0.689941 8 0.689941Z" fill="#ADD1ED"/>
<path fill-rule="evenodd" clip-rule="evenodd" d="M10.2036 6.79479C10.2036 7.97895 9.21706 8.93883 8.00002 8.93883C6.78297 8.93883 5.79642 7.97895 5.79642 6.79479C5.79642 5.61068 6.78297 4.65076 8.00002 4.65076C9.21706 4.65076 10.2036 5.61068 10.2036 6.79479ZM8.00002 13.6472C9.31042 13.6472 10.5266 13.2544 11.5308 12.5832C11.9744 12.2867 12.1639 11.722 11.9061 11.2624C11.3715 10.3098 10.2699 9.71644 7.99994 9.71644C5.73009 9.71644 4.6285 10.3098 4.09388 11.2624C3.83599 11.722 4.02554 12.2866 4.46909 12.5831C5.47336 13.2543 6.68954 13.6472 8.00002 13.6472Z" fill="#ADD1ED"/>
</svg>
