<svg width="140" height="61" viewBox="0 0 140 61" fill="none" xmlns="http://www.w3.org/2000/svg">
<g clip-path="url(#clip0_3120_3230)">
<path fill-rule="evenodd" clip-rule="evenodd" d="M16.7351 8.1626C7.26724 8.1626 -0.420454 15.8987 -0.561523 25.4955C0.934068 22.4181 2.94275 20.4431 4.82784 18.891C7.64921 16.5693 11.0449 15.4478 14.1909 15.2497C17.6377 15.0312 20.3381 15.7704 22.5465 17.5511C23.3442 18.1938 23.9833 18.9545 24.4877 19.7725C25.424 21.2864 25.8572 23.0544 25.7 25.0142C25.3603 29.2347 21.9522 32.6271 17.7976 32.89C12.8738 33.2012 8.78657 29.2309 8.78657 24.2902C8.78657 22.0333 9.64045 19.9808 11.0362 18.444C9.45817 18.9393 7.88271 19.7446 6.44578 20.927C5.01885 22.1019 3.42838 23.7212 2.1213 25.8613C0.694376 28.1982 0.102632 30.9061 0.0851499 33.6571V43.3632H16.7339C26.2904 43.3632 34.0368 35.4835 34.0368 25.7635C34.038 16.0422 26.2904 8.1626 16.7351 8.1626ZM66.1028 20.4012H58.025L49.3282 28.7347V13.823H43.4789V43.4181H49.3282V35.082L58.025 43.4181H66.7089L54.097 31.9096L66.1028 20.4012ZM106.819 23.3005H112.671V43.418H106.819V23.3005ZM82.3407 21.6947C80.6003 20.6635 78.5777 20.0626 76.414 20.0626C69.9301 20.0626 64.6739 25.3682 64.6739 31.9096C64.6739 38.451 69.9301 43.7566 76.414 43.7566C78.5777 43.7566 80.6003 43.1557 82.3407 42.1245V43.4181H88.1931V20.4011H82.3407V21.6947ZM76.414 37.8842C73.1437 37.8842 70.4949 35.2105 70.4949 31.9096C70.4949 28.6087 73.1463 25.935 76.414 25.935C79.6815 25.935 82.3329 28.6087 82.3329 31.9096C82.3329 35.2105 79.6815 37.8842 76.414 37.8842ZM104.467 15.1612C106.858 13.7732 109.339 13.4425 111.103 14.2769L111.105 14.2743C111.665 14.5393 112.124 14.9119 112.465 15.3659C112.981 15.993 113.29 16.7985 113.29 17.6775C113.29 19.6691 111.704 21.2828 109.746 21.2828C107.788 21.2828 106.203 19.6691 106.203 17.6775C106.203 16.6935 106.592 15.8015 107.222 15.1507C106.496 15.3501 105.746 15.665 104.995 16.1005C101.808 17.953 99.4687 22.3744 98.9604 27.2548V43.4155H93.1088V20.3986H98.9604V22.4137C100.111 19.202 102.045 16.5676 104.467 15.1612Z" fill="#991E66"/>
</g>
<defs>
<clipPath id="clip0_3120_3230">
<rect width="140" height="60" fill="white" transform="translate(0 0.524902)"/>
</clipPath>
</defs>
</svg>
