<svg width="140" height="61" viewBox="0 0 140 61" fill="none" xmlns="http://www.w3.org/2000/svg">
<g clip-path="url(#clip0_3120_3239)">
<path d="M51.4473 18.739V24.2991H45.0865V18.739H41.1429V33.3048H45.0865V27.6371H51.4473V33.3048H55.3935V18.739H51.4473Z" fill="black"/>
<path d="M61.8374 26.6316V25.4155C61.8374 23.2334 63.0134 21.8471 65.4053 21.8471H66.1089C68.5008 21.8471 69.6767 23.2334 69.6767 25.4155V26.6316C69.6767 28.8135 68.5008 30.1998 66.1089 30.1998H65.4053C63.0134 30.1998 61.8374 28.8135 61.8374 26.6316ZM66.1089 18.5091H65.4053C60.7036 18.5091 57.6608 21.134 57.6608 25.4155V26.6316C57.6608 30.913 60.7036 33.5379 65.4053 33.5379H66.1089C70.8106 33.5379 73.8534 30.913 73.8534 26.6316V25.4155C73.8534 21.134 70.8106 18.5091 66.1089 18.5091Z" fill="black"/>
<path d="M86.4254 18.739V24.2991H80.0648V18.739H76.1183V33.3048H80.0648V27.6371H86.4254V33.3048H90.3714V18.739H86.4254Z" fill="black"/>
<path d="M92.3021 22.0745H97.3819V33.3048H101.328V22.0745H106.407V18.739H92.3021V22.0745Z" fill="black"/>
<path d="M111.466 26.6316V25.4155C111.466 23.2334 112.642 21.8471 115.034 21.8471H115.737C118.129 21.8471 119.305 23.2334 119.305 25.4155V26.6316C119.305 28.8135 118.129 30.1998 115.737 30.1998H115.034C112.642 30.1998 111.466 28.8135 111.466 26.6316ZM115.737 18.5091H115.034C110.332 18.5091 107.289 21.134 107.289 25.4155V26.6316C107.289 30.913 110.332 33.5379 115.034 33.5379H115.737C120.439 33.5379 123.482 30.913 123.482 26.6316V25.4155C123.482 21.134 120.439 18.5091 115.737 18.5091Z" fill="black"/>
<path d="M136.054 18.739V24.2991H129.693V18.739H125.747V33.3048H129.693V27.6371H136.054V33.3048H140V18.739H136.054Z" fill="black"/>
<path fill-rule="evenodd" clip-rule="evenodd" d="M0 25.9582L5.54259 14.8705L11.0877 25.9582H0Z" fill="#9B9BFF"/>
<path fill-rule="evenodd" clip-rule="evenodd" d="M5.54456 14.8705L11.0896 25.9581L16.6322 14.8705H5.54456Z" fill="black"/>
<path fill-rule="evenodd" clip-rule="evenodd" d="M22.1767 25.9581L27.7218 37.0483H16.6316L11.089 25.9581L16.6316 14.8705L22.1767 25.9581Z" fill="#00ADE5"/>
<path fill-rule="evenodd" clip-rule="evenodd" d="M22.1756 25.9584L27.7207 37.0485L33.2633 25.9584H22.1756Z" fill="black"/>
</g>
<defs>
<clipPath id="clip0_3120_3239">
<rect width="140" height="60" fill="white" transform="translate(0 0.524902)"/>
</clipPath>
</defs>
</svg>
