<svg width="46" height="46" viewBox="0 0 46 46" fill="none" xmlns="http://www.w3.org/2000/svg">
<g clip-path="url(#clip0_3004_14642)">
<path d="M22.78 0C19 1.92 14.21 5.7 9.98004 9.98C9.43004 10.53 8.92004 11.04 8.42004 11.59L10.69 13.86C11.19 13.31 11.75 12.75 12.25 12.25C15.88 8.62 19.71 5.5 22.78 3.68C29.18 7.51 38.05 16.38 41.88 22.78C40.07 25.85 36.94 29.69 33.31 33.31C32.76 33.86 32.25 34.37 31.7 34.87L33.97 37.14C34.52 36.64 35.08 36.08 35.58 35.58C39.86 31.3 43.65 26.56 45.56 22.78C41.79 15.22 30.4 3.83 22.78 0Z" fill="#1B75BB"/>
<path d="M22.78 7.51001C20.26 9.22001 17.34 11.69 14.51 14.52C13.96 15.07 13.45 15.58 12.95 16.13L15.22 18.4C15.72 17.85 16.28 17.29 16.78 16.79C18.8 14.77 20.86 12.96 22.78 11.5C26.66 14.52 31.05 18.91 34.07 22.79C32.61 24.71 30.74 26.77 28.78 28.79C28.23 29.34 27.72 29.85 27.17 30.35L29.44 32.62C29.99 32.12 30.5499 31.61 31.0499 31.06C33.8699 28.24 36.34 25.31 38.06 22.79C34.48 17.6 27.98 11.1 22.79 7.52001L22.78 7.51001Z" fill="#1B75BB"/>
<path d="M22.78 15.6799C21.57 16.7399 20.31 17.8999 19.1 19.1099C18.55 19.6599 18.04 20.1699 17.54 20.7199L19.81 22.9899C20.31 22.4399 20.82 21.8799 21.37 21.3799C21.82 20.9299 22.33 20.4199 22.78 20.0199C23.23 20.4699 23.74 20.9299 24.19 21.3799C24.64 21.8299 25.1 22.3399 25.55 22.7899C25.1 23.2399 24.64 23.7499 24.19 24.1999C23.64 24.7499 23.08 25.2599 22.58 25.7599L24.85 28.0299C25.4 27.5299 25.96 26.9699 26.46 26.4699C27.67 25.2599 28.83 23.9999 29.89 22.7899C28.83 21.5799 27.67 20.3199 26.46 19.1099C25.25 17.8999 23.99 16.7399 22.78 15.6799Z" fill="#1B75BB"/>
<path d="M0 22.7799C1.31 20.1099 3.58 16.9799 6.3 13.9099L8.47 16.0799L11.65 19.2599L13.82 21.4299C13.01 22.3899 11.7 24.0499 10.75 25.3099C13.47 28.6399 17 32.1699 20.38 34.9399C21.64 33.9799 23.3 32.6699 24.26 31.8699L26.43 34.0399L29.61 37.2199L31.78 39.3899C28.65 42.1099 25.53 44.3799 22.91 45.6899C15.17 41.7899 3.78 30.3999 0 22.7799Z" fill="#1B75BB"/>
</g>
<defs>
<clipPath id="clip0_3004_14642">
<rect width="46" height="46" fill="white"/>
</clipPath>
</defs>
</svg>
