<svg width="36" height="37" viewBox="0 0 36 37" fill="none" xmlns="http://www.w3.org/2000/svg">
<path fill-rule="evenodd" clip-rule="evenodd" d="M32.6305 24.7005L32.6288 12.5808L24.0577 4.01196L11.9379 4.01362L3.36914 12.5847L3.3708 24.7045L11.9419 33.2733L24.0617 33.2716L32.6305 24.7005ZM34.6288 12.5805C34.6287 12.05 34.4179 11.5414 34.0428 11.1663L25.4717 2.59756C25.0966 2.22253 24.5878 2.01189 24.0574 2.01196L11.9377 2.01362C11.4072 2.01369 10.8985 2.22448 10.5235 2.5996L1.95473 11.1707C1.57971 11.5459 1.36907 12.0546 1.36914 12.585L1.3708 24.7048C1.37087 25.2352 1.58165 25.7439 1.95678 26.1189L10.5279 34.6877C10.903 35.0627 11.4118 35.2734 11.9422 35.2733L24.0619 35.2716C24.5924 35.2716 25.1011 35.0608 25.4761 34.6856L34.0449 26.1145C34.4199 25.7394 34.6305 25.2307 34.6305 24.7002L34.6288 12.5805Z" fill="currentColor"/>
<path d="M17.1498 20.5235L16.8348 12.2075H19.1748L18.8598 20.5235H17.1498ZM18.0048 25.0775C17.6208 25.0775 17.2878 24.9545 17.0058 24.7085C16.7298 24.4625 16.5918 24.1415 16.5918 23.7455C16.5918 23.4755 16.6548 23.2415 16.7808 23.0435C16.9068 22.8395 17.0778 22.6835 17.2938 22.5755C17.5098 22.4615 17.7468 22.4045 18.0048 22.4045C18.3948 22.4045 18.7248 22.5275 18.9948 22.7735C19.2708 23.0135 19.4088 23.3375 19.4088 23.7455C19.4088 24.0095 19.3458 24.2435 19.2198 24.4475C19.0938 24.6455 18.9228 24.7985 18.7068 24.9065C18.4968 25.0205 18.2628 25.0775 18.0048 25.0775Z" fill="currentColor"/>
</svg>
