<svg width="12" height="12" viewBox="0 0 12 12" fill="none" xmlns="http://www.w3.org/2000/svg">
<path d="M10.7799 3.22944C10.6389 3.08253 10.4477 3 10.2484 3C10.049 3 9.85783 3.08253 9.71685 3.22944L5.99546 7.10846L2.27408 3.22944C2.13229 3.08669 1.94238 3.00771 1.74526 3.00949C1.54814 3.01128 1.35958 3.09369 1.22019 3.23899C1.08081 3.38428 1.00174 3.58083 1.00003 3.78629C0.998315 3.99176 1.07409 4.18971 1.21104 4.33751L5.46394 8.77056C5.60492 8.91747 5.79611 9 5.99546 9C6.19481 9 6.386 8.91747 6.52698 8.77056L10.7799 4.33751C10.9208 4.19055 11 3.99127 11 3.78347C11 3.57568 10.9208 3.37639 10.7799 3.22944Z" fill="currentColor"/>
</svg>
