<svg width="64" height="65" viewBox="0 0 64 65" fill="none" xmlns="http://www.w3.org/2000/svg">
<path fill-rule="evenodd" clip-rule="evenodd" d="M31.5724 47.644C31.1092 47.6441 30.6651 47.8281 30.3377 48.1555C30.0102 48.483 29.8262 48.9271 29.8262 49.3902C29.8262 49.8533 30.0102 50.2974 30.3377 50.6249C30.6651 50.9523 31.1092 51.1363 31.5724 51.1364C32.0355 51.1363 32.4796 50.9523 32.807 50.6249C33.1345 50.2974 33.3185 49.8533 33.3185 49.3902C33.3185 48.9271 33.1345 48.483 32.807 48.1555C32.4796 47.8281 32.0355 47.6441 31.5724 47.644Z" fill="currentColor"/>
<path fill-rule="evenodd" clip-rule="evenodd" d="M41.3078 43.5632C40.8882 43.592 40.4931 43.7713 40.1951 44.0681C39.8676 44.3956 39.6836 44.8398 39.6836 45.3029C39.6836 45.7661 39.8676 46.2103 40.1951 46.5378C40.5226 46.8653 40.9668 47.0493 41.43 47.0493C41.8931 47.0493 42.3373 46.8653 42.6648 46.5378C42.9923 46.2103 43.1763 45.7661 43.1763 45.3029C43.1763 44.8398 42.9923 44.3956 42.6648 44.0681C42.4879 43.8918 42.2752 43.7554 42.0411 43.6683C41.807 43.5813 41.5569 43.5454 41.3078 43.5632Z" fill="currentColor"/>
<path fill-rule="evenodd" clip-rule="evenodd" d="M21.5858 43.5631C21.1673 43.5927 20.7735 43.7719 20.4763 44.068C20.1488 44.3955 19.9648 44.8397 19.9648 45.3029C19.9648 45.766 20.1488 46.2102 20.4763 46.5377C20.8038 46.8652 21.248 47.0493 21.7112 47.0493C22.1744 47.0493 22.6186 46.8652 22.9461 46.5377C23.2736 46.2102 23.4576 45.766 23.4576 45.3029C23.4576 44.8397 23.2736 44.3955 22.9461 44.068C22.7688 43.8913 22.5555 43.7547 22.3208 43.6676C22.0862 43.5805 21.8355 43.5449 21.5858 43.5631Z" fill="currentColor"/>
<path fill-rule="evenodd" clip-rule="evenodd" d="M45.5157 33.6971C45.0526 33.6971 44.6085 33.8811 44.281 34.2086C43.9536 34.5361 43.7696 34.9802 43.7695 35.4433C43.7696 35.9064 43.9536 36.3505 44.281 36.6779C44.6085 37.0054 45.0526 37.1894 45.5157 37.1894C45.7453 37.1898 45.9727 37.145 46.1849 37.0574C46.3971 36.9698 46.59 36.8413 46.7525 36.6791C46.915 36.5169 47.0439 36.3243 47.1318 36.1122C47.2198 35.9001 47.2651 35.6728 47.2651 35.4433C47.2651 35.2137 47.2198 34.9864 47.1318 34.7743C47.0439 34.5623 46.915 34.3696 46.7525 34.2074C46.59 34.0453 46.3971 33.9167 46.1849 33.8291C45.9727 33.7416 45.7453 33.6967 45.5157 33.6971Z" fill="currentColor"/>
<path fill-rule="evenodd" clip-rule="evenodd" d="M17.6283 33.6971C17.3987 33.6967 17.1713 33.7416 16.9591 33.8291C16.7469 33.9167 16.554 34.0453 16.3915 34.2074C16.2291 34.3696 16.1001 34.5623 16.0122 34.7743C15.9242 34.9864 15.8789 35.2137 15.8789 35.4433C15.8789 35.6728 15.9242 35.9001 16.0122 36.1122C16.1001 36.3243 16.2291 36.5169 16.3915 36.6791C16.554 36.8413 16.7469 36.9698 16.9591 37.0574C17.1713 37.145 17.3987 37.1898 17.6283 37.1894C18.0914 37.1894 18.5355 37.0054 18.863 36.6779C19.1904 36.3505 19.3744 35.9064 19.3745 35.4433C19.3744 34.9802 19.1904 34.5361 18.863 34.2086C18.5355 33.8811 18.0914 33.6971 17.6283 33.6971Z" fill="currentColor"/>
<path fill-rule="evenodd" clip-rule="evenodd" d="M31.572 26.3394C31.1354 26.3394 30.7166 26.5128 30.4078 26.8216C30.099 27.1304 29.9255 27.5492 29.9255 27.9858V35.5333L25.4684 39.9936C25.1597 40.3024 24.9863 40.7211 24.9863 41.1578C24.9863 41.5944 25.1597 42.0131 25.4684 42.3219C25.7772 42.6306 26.196 42.804 26.6326 42.804C27.0692 42.804 27.4879 42.6306 27.7967 42.3219L32.7362 37.3824C33.0449 37.0737 33.2184 36.6549 33.2185 36.2183V27.9858C33.2185 27.5492 33.0451 27.1304 32.7363 26.8216C32.4275 26.5128 32.0087 26.3394 31.572 26.3394Z" fill="currentColor"/>
<path fill-rule="evenodd" clip-rule="evenodd" d="M41.3078 23.8406C40.8877 23.8703 40.4926 24.0508 40.1951 24.3487C39.8676 24.6763 39.6836 25.1204 39.6836 25.5836C39.6836 26.0468 39.8676 26.491 40.1951 26.8185C40.5226 27.146 40.9668 27.33 41.43 27.33C41.8931 27.33 42.3373 27.146 42.6648 26.8185C42.9923 26.491 43.1763 26.0468 43.1763 25.5836C43.1763 25.1204 42.9923 24.6763 42.6648 24.3487C42.4882 24.1719 42.2756 24.035 42.0415 23.9473C41.8074 23.8597 41.5571 23.8233 41.3078 23.8406Z" fill="currentColor"/>
<path fill-rule="evenodd" clip-rule="evenodd" d="M21.5858 23.8406C21.1669 23.8711 20.773 24.0515 20.4763 24.3487C20.1488 24.6762 19.9648 25.1204 19.9648 25.5836C19.9648 26.0468 20.1488 26.491 20.4763 26.8185C20.8038 27.146 21.248 27.33 21.7112 27.33C22.1744 27.33 22.6186 27.146 22.9461 26.8185C23.2736 26.491 23.4576 26.0468 23.4576 25.5836C23.4576 25.1204 23.2736 24.6762 22.9461 24.3487C22.7691 24.1714 22.556 24.0343 22.3212 23.9466C22.0865 23.8589 21.8357 23.8228 21.5858 23.8406Z" fill="currentColor"/>
<path fill-rule="evenodd" clip-rule="evenodd" d="M31.5724 19.7534C31.1092 19.7534 30.6651 19.9374 30.3377 20.2649C30.0102 20.5924 29.8262 21.0365 29.8262 21.4996C29.8262 21.9627 30.0102 22.4068 30.3377 22.7342C30.6651 23.0617 31.1092 23.2457 31.5724 23.2457C32.0355 23.2457 32.4796 23.0617 32.807 22.7342C33.1345 22.4068 33.3185 21.9627 33.3185 21.4996C33.3185 21.0365 33.1345 20.5924 32.807 20.2649C32.4796 19.9374 32.0355 19.7534 31.5724 19.7534Z" fill="currentColor"/>
<path fill-rule="evenodd" clip-rule="evenodd" d="M28.2784 9.87445C27.8417 9.87445 27.4229 10.0479 27.1141 10.3567C26.8053 10.6654 26.6319 11.0843 26.6319 11.5209C26.6319 11.9576 26.8053 12.3764 27.1141 12.6852C27.4229 12.9939 27.8417 13.1674 28.2784 13.1674H29.9249V14.8847C19.3454 15.7274 10.9902 24.6028 10.9902 35.395C10.9902 46.7421 20.2242 55.9761 31.5713 55.9761C42.9184 55.9761 52.1525 46.7421 52.1525 35.395C52.1525 31.286 50.9367 27.4561 48.853 24.2394C48.9176 24.1946 48.9789 24.1451 49.0363 24.0915L52.5287 20.5992C52.8374 20.2904 53.0107 19.8717 53.0107 19.4351C53.0107 18.9985 52.8374 18.5797 52.5287 18.271L47.8722 13.6145C47.5634 13.3058 47.1447 13.1325 46.7081 13.1325C46.2715 13.1325 45.8528 13.3058 45.544 13.6145L42.0516 17.1068C41.933 17.2301 41.8342 17.3711 41.759 17.5248C39.2028 16.0617 36.3056 15.1306 33.2178 14.8847V13.1674H34.8643C35.301 13.1674 35.7198 12.9939 36.0286 12.6852C36.3373 12.3764 36.5108 11.9576 36.5108 11.5209C36.5108 11.0843 36.3373 10.6654 36.0286 10.3567C35.7198 10.0479 35.301 9.87445 34.8643 9.87445H28.2784ZM46.7081 17.1068L49.0363 19.435L47.8722 20.5991L45.544 18.2709L46.7081 17.1068ZM31.5713 18.1069C41.1388 18.1069 48.8595 25.8276 48.8595 35.395C48.8595 44.9625 41.1388 52.6832 31.5713 52.6832C22.0039 52.6832 14.2832 44.9625 14.2832 35.395C14.2832 25.8276 22.0039 18.1069 31.5713 18.1069Z" fill="currentColor"/>
</svg>
