<svg width="30" height="31" viewBox="0 0 30 31" fill="none" xmlns="http://www.w3.org/2000/svg">
<path fill-rule="evenodd" clip-rule="evenodd" d="M15 30.6899C23.2843 30.6899 30 23.9742 30 15.6899C30 7.40567 23.2843 0.689941 15 0.689941C6.71573 0.689941 0 7.40567 0 15.6899C0 23.9742 6.71573 30.6899 15 30.6899ZM7.45496 11.5022C7.45496 11.4387 7.4606 11.3765 7.4714 11.3161L14.6771 16.956C14.7831 17.039 14.9098 17.0772 15.0345 17.0735C15.1592 17.0772 15.2859 17.039 15.3919 16.956L22.5361 11.3643C22.542 11.4094 22.545 11.4555 22.545 11.5022V19.6931C22.545 20.273 22.0749 20.7431 21.495 20.7431H8.50496C7.92506 20.7431 7.45496 20.273 7.45496 19.6931V11.5022ZM15.0345 15.8293L21.8332 10.5079C21.7271 10.4718 21.6134 10.4522 21.495 10.4522H8.50496C8.40477 10.4522 8.30786 10.4663 8.21609 10.4925L15.0345 15.8293Z" fill="currentColor"/>
</svg>
