<svg width="64" height="65" viewBox="0 0 64 65" fill="none" xmlns="http://www.w3.org/2000/svg">
<path fill-rule="evenodd" clip-rule="evenodd" d="M50.6847 31.2404C49.7162 31.2404 48.748 31.604 48.0187 32.3333L43.5939 36.761C43.1039 35.9873 42.341 35.3842 41.3992 35.1319L30.9561 32.3333C30.1238 32.1103 29.2631 32.0684 28.4285 32.1948C27.5939 32.3214 26.7859 32.6161 26.0571 33.0757L19.5378 37.1881L19.0105 36.272C18.3538 35.1345 16.8456 34.7315 15.7081 35.3882L10.7502 38.2486C9.61275 38.9054 9.20973 40.4135 9.86644 41.551L17.2547 54.345C17.9114 55.4825 19.4167 55.8884 20.5541 55.2317L25.5121 52.3683C26.6495 51.7116 27.0555 50.2034 26.3988 49.066L26.3015 48.8951L29.1266 46.9862L39.5197 49.0306C40.944 49.3106 42.2172 48.9132 43.2315 47.8758C46.5837 44.4471 49.9401 41.0339 53.3447 37.6742C53.3478 37.6722 53.3508 37.6702 53.3538 37.6682C54.8125 36.2095 54.8125 33.7918 53.3538 32.3332C52.6245 31.6038 51.6532 31.2404 50.6847 31.2404ZM50.6847 34.2305C50.8728 34.2305 51.0609 34.3092 51.2179 34.4661C51.5318 34.78 51.5318 35.2216 51.2179 35.5355C47.7947 38.9137 44.4285 42.3397 41.0752 45.7695C41.0137 45.8325 40.1889 46.0869 40.1031 46.07L29.0943 43.9077C28.8989 43.8691 28.6979 43.8695 28.5027 43.9089C28.3076 43.9483 28.1221 44.026 27.9571 44.1375L24.7903 46.2791L21.049 39.8011L27.6655 35.6297C28.4132 35.1583 29.3216 35.018 30.1754 35.2468L40.6186 38.0454C41.0473 38.1603 41.2667 38.5416 41.1518 38.9704C41.0369 39.3991 40.6555 39.6185 40.2268 39.5036L33.6722 37.7478C33.2858 37.6444 32.8742 37.6986 32.5278 37.8986C32.1814 38.0986 31.9287 38.4279 31.8251 38.8143C31.7216 39.2006 31.7759 39.6122 31.9758 39.9586C32.1758 40.305 32.5052 40.5578 32.8915 40.6613L39.4461 42.4171C40.9179 42.8115 42.4428 42.2531 43.3553 41.1327C43.5011 41.066 43.6354 40.9765 43.753 40.8675L50.1515 34.4661C50.3084 34.3092 50.4966 34.2305 50.6847 34.2305ZM16.698 38.2987L17.4285 39.5655C17.4543 39.7794 17.5256 39.9853 17.6377 40.1694C17.7345 40.316 17.8561 40.4446 17.9971 40.5494L23.4853 50.0558L19.5673 52.3182L12.7799 40.5612L16.698 38.2987Z" fill="currentColor"/>
<path fill-rule="evenodd" clip-rule="evenodd" d="M39.4917 10.304C33.6785 10.304 28.9336 15.0489 28.9336 20.862C28.9336 26.6752 33.6785 31.4201 39.4917 31.4201C45.3048 31.4201 50.0497 26.6752 50.0497 20.862C50.0497 15.0489 45.3048 10.304 39.4917 10.304ZM39.4917 13.3205C43.6746 13.3205 47.0331 16.6791 47.0331 20.862C47.0331 25.0449 43.6746 28.4035 39.4917 28.4035C35.3088 28.4035 31.9502 25.0449 31.9502 20.862C31.9502 16.6791 35.3088 13.3205 39.4917 13.3205Z" fill="currentColor"/>
</svg>
