<svg width="40" height="39" viewBox="0 0 40 39" fill="none" xmlns="http://www.w3.org/2000/svg">
<path d="M3.15376 34.8906H3.31543V35.6985C3.31543 37.0146 4.39308 38.0913 5.70825 38.0913H13.6884C15.005 38.0913 16.0812 37.0137 16.0812 35.6985V34.8906H36.0767C37.811 34.8906 39.2305 33.4702 39.2305 31.7369V7.0444C39.2305 5.31012 37.81 3.89112 36.0767 3.89112H16.0812V3.08277C16.0812 1.76664 15.0036 0.689945 13.6884 0.689945H5.70825C4.39165 0.689945 3.31543 1.76759 3.31543 3.08277V3.89112H3.15376C1.41948 3.89112 0 5.31107 0 7.0444V31.7369C0 33.4735 1.41711 34.8906 3.15376 34.8906ZM5.27871 21.2866H14.118V24.4674H5.27871V21.2866ZM14.118 19.3233H5.27871V3.08277C5.27871 2.84666 5.4712 2.65322 5.70825 2.65322H13.6884C13.9255 2.65322 14.118 2.84619 14.118 3.08277V19.3233ZM5.27871 26.4306H14.118V33.9087V35.6985C14.118 35.9346 13.9255 36.128 13.6884 36.128H5.70825C5.4712 36.128 5.27871 35.9351 5.27871 35.6985V33.9087V26.4306ZM18.9866 10.0355C17.6951 10.0355 17.6951 11.9988 18.9866 11.9988H21.6729C22.9643 11.9988 22.9643 10.0355 21.6729 10.0355H18.9866ZM31.1327 10.0355C29.8413 10.0355 29.8413 11.9988 31.1327 11.9988H33.819C35.1105 11.9988 35.1105 10.0355 33.819 10.0355H31.1327ZM25.0594 10.0355C23.7684 10.0355 23.7684 11.9988 25.0594 11.9988H27.7457C29.0372 11.9988 29.0372 10.0355 27.7457 10.0355H25.0594ZM18.9866 18.3803C17.6951 18.3803 17.6951 20.3441 18.9866 20.3441H21.6729C22.9643 20.3441 22.9643 18.3803 21.6729 18.3803H18.9866ZM31.1327 18.3803C29.8413 18.3803 29.8413 20.3441 31.1327 20.3441H33.819C35.1105 20.3441 35.1105 18.3803 33.819 18.3803H31.1327ZM25.0594 18.3803C23.7684 18.3803 23.7684 20.3441 25.0594 20.3441H27.7457C29.0372 20.3441 29.0372 18.3803 27.7457 18.3803H25.0594ZM18.9866 14.2082C17.6951 14.2082 17.6951 16.1714 18.9866 16.1714H21.6729C22.9643 16.1714 22.9643 14.2082 21.6729 14.2082H18.9866ZM31.1327 14.2082C29.8413 14.2082 29.8413 16.1714 31.1327 16.1714H33.819C35.1105 16.1714 35.1105 14.2082 33.819 14.2082H31.1327ZM25.0594 14.2082C23.7684 14.2082 23.7684 16.1714 25.0594 16.1714H27.7457C29.0372 16.1714 29.0372 14.2082 27.7457 14.2082H25.0594ZM18.9292 28.7462H34.0191C34.561 28.7462 35.0005 28.3062 35.0005 27.7643V23.5348C35.0005 22.9924 34.561 22.5529 34.0191 22.5529H18.9292C18.3873 22.5529 17.9478 22.9924 17.9478 23.5348V27.7643C17.9478 28.3062 18.3873 28.7462 18.9292 28.7462ZM33.0372 26.7824H19.9111V24.5162H33.0372V26.7824ZM3.31543 32.9273H3.15376C2.50139 32.9273 1.96375 32.3892 1.96375 31.7369V7.0444C1.96375 6.39014 2.49807 5.85439 3.15376 5.85439H3.31543C3.31543 14.8785 3.31543 23.9027 3.31543 32.9273ZM36.0767 32.9273H16.0812C16.0812 23.9027 16.0812 14.8785 16.0812 5.85439H36.0767C36.731 5.85439 37.2672 6.38919 37.2672 7.0444V31.7369C37.2672 32.3925 36.7324 32.9273 36.0767 32.9273Z" fill="currentColor"/>
</svg>
