<svg width="64" height="65" viewBox="0 0 64 65" fill="none" xmlns="http://www.w3.org/2000/svg">
<path fill-rule="evenodd" clip-rule="evenodd" d="M19.2819 32.5391C18.8706 32.6505 18.5203 32.9206 18.308 33.29L9.69624 48.2073C9.53717 48.4827 9.46326 48.799 9.48384 49.1163C9.50442 49.4336 9.61858 49.7377 9.81188 49.9902C10.0052 50.2426 10.269 50.4321 10.5699 50.5348C10.8709 50.6374 11.1955 50.6486 11.5028 50.5668L16.5423 49.2159L17.8901 54.2522C17.9723 54.5596 18.1438 54.8357 18.3829 55.0457C18.622 55.2556 18.918 55.3899 19.2334 55.4316C19.5489 55.4733 19.8696 55.4205 20.1551 55.2799C20.4405 55.1394 20.6779 54.9173 20.8371 54.6418L28.7325 40.9686C28.9455 40.5994 29.0033 40.1607 28.8931 39.749C28.783 39.3372 28.5139 38.986 28.145 38.7725C27.7758 38.5595 27.3371 38.5017 26.9254 38.6118C26.5136 38.722 26.1624 38.9911 25.9489 39.36L19.9951 49.6714L19.2348 46.8312C19.1804 46.6269 19.0863 46.4354 18.9579 46.2675C18.8294 46.0996 18.6691 45.9586 18.4862 45.8527C18.3032 45.7468 18.1012 45.678 17.8917 45.6502C17.6821 45.6224 17.4691 45.6362 17.2649 45.6907L14.4215 46.4511L21.0916 34.8986C21.3046 34.5294 21.3624 34.0907 21.2522 33.679C21.1421 33.2672 20.873 32.916 20.5041 32.7025C20.3211 32.5962 20.119 32.5271 19.9093 32.499C19.6996 32.471 19.4864 32.4846 19.2819 32.5391Z" fill="currentColor"/>
<path fill-rule="evenodd" clip-rule="evenodd" d="M43.4964 32.7025C43.1275 32.916 42.8584 33.2672 42.7483 33.679C42.6381 34.0907 42.6959 34.5294 42.9089 34.8986L49.579 46.4511L46.7356 45.6907C46.5314 45.6362 46.3184 45.6224 46.1089 45.6502C45.8993 45.678 45.6973 45.7468 45.5143 45.8527C45.3314 45.9586 45.1711 46.0996 45.0427 46.2675C44.9142 46.4354 44.8201 46.6269 44.7657 46.8312L44.0054 49.6714L38.0517 39.36C37.8381 38.9911 37.4869 38.722 37.0752 38.6118C36.6634 38.5017 36.2247 38.5595 35.8555 38.7725C35.4866 38.986 35.2175 39.3372 35.1074 39.749C34.9972 40.1607 35.055 40.5994 35.268 40.9686L43.1634 54.6418C43.3226 54.9173 43.56 55.1393 43.8454 55.2799C44.1309 55.4205 44.4516 55.4733 44.7671 55.4316C45.0825 55.3899 45.3785 55.2556 45.6176 55.0456C45.8568 54.8357 46.0282 54.5596 46.1104 54.2522L47.4583 49.2159L52.4977 50.5668C52.805 50.6486 53.1297 50.6374 53.4306 50.5348C53.7316 50.4321 53.9953 50.2426 54.1886 49.9901C54.382 49.7377 54.4961 49.4336 54.5167 49.1163C54.5373 48.799 54.4634 48.4827 54.3043 48.2073L45.6926 33.29C45.479 32.9211 45.1278 32.652 44.7161 32.5418C44.3043 32.4317 43.8656 32.4895 43.4964 32.7025Z" fill="currentColor"/>
<path fill-rule="evenodd" clip-rule="evenodd" d="M32.0002 10.405C23.1351 10.405 15.9141 17.6261 15.9141 26.4911C15.9141 35.3562 23.1351 42.5772 32.0002 42.5772C40.8652 42.5772 48.0863 35.3562 48.0863 26.4911C48.0863 17.6261 40.8652 10.405 32.0002 10.405ZM32.0002 13.6222C39.1265 13.6222 44.869 19.3648 44.869 26.4911C44.869 33.6175 39.1265 39.36 32.0002 39.36C24.8738 39.36 19.1313 33.6175 19.1313 26.4911C19.1313 19.3648 24.8738 13.6222 32.0002 13.6222Z" fill="currentColor"/>
<path fill-rule="evenodd" clip-rule="evenodd" d="M39.3631 21.4458C40.0087 21.9853 40.0947 22.9461 39.5552 23.5917L32.5777 31.9407C32.3066 32.2651 31.9128 32.4623 31.4906 32.485C31.0684 32.5077 30.6558 32.3539 30.3514 32.0605L25.3411 27.2301C24.7354 26.6461 24.7177 25.6817 25.3017 25.076C25.8856 24.4703 26.85 24.4527 27.4557 25.0366L31.2886 28.7319L37.2173 21.6378C37.7568 20.9923 38.7176 20.9063 39.3631 21.4458Z" fill="currentColor"/>
</svg>
