<svg width="17" height="17" viewBox="0 0 17 17" fill="none" xmlns="http://www.w3.org/2000/svg">
<rect x="1.44507" y="1.18994" width="15" height="15" rx="7.5" stroke="currentColor"/>
<path d="M8.09313 10.2414C7.99313 9.78537 7.95513 9.41337 7.97913 9.12537C8.00313 8.83737 8.09713 8.59137 8.26113 8.38737C8.42913 8.17937 8.67913 7.97137 9.01113 7.76337C9.44713 7.48737 9.73713 7.24937 9.88113 7.04937C10.0251 6.84537 10.0971 6.62537 10.0971 6.38937C10.0971 5.98937 9.95913 5.69137 9.68313 5.49537C9.40713 5.29937 9.02113 5.20137 8.52513 5.20137C8.18513 5.20137 7.87913 5.24937 7.60713 5.34537C7.33513 5.44137 7.09313 5.57137 6.88113 5.73537L6.55713 4.81137C6.70113 4.68737 6.88113 4.57537 7.09713 4.47537C7.31313 4.37537 7.55713 4.29737 7.82913 4.24137C8.10113 4.18137 8.39313 4.15137 8.70513 4.15137C9.21313 4.15137 9.66313 4.23337 10.0551 4.39737C10.4511 4.56137 10.7631 4.79737 10.9911 5.10537C11.2191 5.41337 11.3331 5.78137 11.3331 6.20937C11.3331 6.44937 11.2911 6.67937 11.2071 6.89937C11.1231 7.11537 10.9771 7.33337 10.7691 7.55337C10.5611 7.76937 10.2731 7.99737 9.90513 8.23737C9.64113 8.40937 9.44513 8.57537 9.31713 8.73537C9.18913 8.89537 9.11513 9.09137 9.09513 9.32337C9.07913 9.55537 9.10313 9.86137 9.16713 10.2414H8.09313ZM8.69913 12.9114C8.46713 12.9114 8.26713 12.8374 8.09913 12.6894C7.93513 12.5414 7.85313 12.3474 7.85313 12.1074C7.85313 11.9474 7.88913 11.8074 7.96113 11.6874C8.03713 11.5674 8.13913 11.4734 8.26713 11.4054C8.39913 11.3374 8.54313 11.3034 8.69913 11.3034C8.93513 11.3034 9.13513 11.3774 9.29913 11.5254C9.46313 11.6734 9.54513 11.8674 9.54513 12.1074C9.54513 12.2674 9.50713 12.4074 9.43113 12.5274C9.35513 12.6474 9.25313 12.7414 9.12513 12.8094C8.99713 12.8774 8.85513 12.9114 8.69913 12.9114Z" fill="currentColor"/>
</svg>
