<svg width="16" height="17" viewBox="0 0 16 17" fill="none" xmlns="http://www.w3.org/2000/svg">
<path fill-rule="evenodd" clip-rule="evenodd" d="M12.7034 7.39507C12.7034 10.1678 10.4556 12.4155 7.6829 12.4155C4.91019 12.4155 2.66246 10.1678 2.66246 7.39507C2.66246 4.62235 4.91019 2.37462 7.6829 2.37462C10.4556 2.37462 12.7034 4.62235 12.7034 7.39507ZM11.1445 13.2528C10.1304 13.8534 8.94691 14.1981 7.6829 14.1981C3.9257 14.1981 0.879883 11.1523 0.879883 7.39507C0.879883 3.63786 3.9257 0.592041 7.6829 0.592041C11.4401 0.592041 14.4859 3.63786 14.4859 7.39507C14.4859 9.2427 13.7494 10.9183 12.5539 12.1443L15.8799 15.5405L14.6063 16.7878L11.1445 13.2528Z" fill="currentColor"/>
</svg>
