<svg width="20" height="21" viewBox="0 0 20 21" fill="none" xmlns="http://www.w3.org/2000/svg">
<g clip-path="url(#clip0_264_83)">
<path fill-rule="evenodd" clip-rule="evenodd" d="M10 2.93994C6.55563 2.93994 3.75 5.74557 3.75 9.18994C3.75 10.9331 4.46863 12.5127 5.625 13.6478V19.8149C5.625 19.9215 5.65224 20.0263 5.70412 20.1193C5.756 20.2124 5.8308 20.2906 5.92143 20.3466C6.01205 20.4026 6.11549 20.4346 6.22192 20.4394C6.32835 20.4441 6.43424 20.4217 6.52954 20.374L10 18.6382L13.4705 20.374C13.5658 20.4217 13.6716 20.4441 13.7781 20.4394C13.8845 20.4346 13.9879 20.4026 14.0786 20.3466C14.1692 20.2906 14.244 20.2124 14.2959 20.1193C14.3478 20.0263 14.375 19.9215 14.375 19.8149V13.6478C15.5314 12.5127 16.25 10.9331 16.25 9.18994C16.25 5.74557 13.4444 2.93994 10 2.93994ZM6.69194 12.9326C6.70878 12.9494 6.72456 12.9671 6.73923 12.9856C7.61364 13.7368 8.75222 14.1899 10 14.1899C11.2478 14.1899 12.3864 13.7368 13.2608 12.9856C13.2754 12.9671 13.2912 12.9494 13.3081 12.9326C13.3412 12.8994 13.3777 12.8704 13.4168 12.8458C14.3919 11.9343 15 10.6354 15 9.18994C15 6.42112 12.7688 4.18994 10 4.18994C7.23118 4.18994 5 6.42112 5 9.18994C5 10.6354 5.60806 11.9343 6.58323 12.8458C6.62228 12.8704 6.65878 12.8994 6.69194 12.9326ZM6.875 18.8042V14.6003C7.79502 15.134 8.86269 15.4399 10 15.4399C11.1373 15.4399 12.205 15.134 13.125 14.6003V18.8042L10.2795 17.3809C10.1927 17.3375 10.097 17.3149 10 17.3149C9.90296 17.3149 9.80725 17.3375 9.72046 17.3809L6.875 18.8042ZM8.20039 12.9549C8.06134 13.029 7.89933 13.0482 7.74675 13.0084C7.59415 12.9688 7.46215 12.8733 7.37713 12.7409C7.2921 12.6086 7.26032 12.4491 7.28813 12.2943L7.65025 10.29L6.17591 8.88173C6.09088 8.80055 6.03052 8.69711 6.00179 8.58329C5.97305 8.46947 5.97709 8.34988 6.01345 8.23824C6.04981 8.12661 6.11701 8.02745 6.20733 7.95217C6.29766 7.87688 6.40745 7.82852 6.5241 7.81262L8.54758 7.53691L9.43597 5.70316C9.48709 5.5973 9.56714 5.50798 9.66693 5.44546C9.76672 5.38295 9.88218 5.34979 10 5.34979C10.1179 5.34979 10.2333 5.38295 10.3331 5.44546C10.4329 5.50798 10.513 5.5973 10.5641 5.70316L11.4525 7.53691L13.476 7.81262C13.5926 7.82852 13.7024 7.87688 13.7927 7.95217C13.8831 8.02745 13.9503 8.12661 13.9866 8.23824C14.023 8.34988 14.027 8.46947 13.9983 8.58329C13.9695 8.69711 13.9092 8.80055 13.8242 8.88173L12.3498 10.29L12.7119 12.2943C12.7328 12.4098 12.7206 12.5289 12.6767 12.6378C12.6328 12.7467 12.559 12.841 12.4637 12.91C12.3685 12.9789 12.2556 13.0197 12.1382 13.0277C12.0207 13.0356 11.9034 13.0104 11.7997 12.9549L10 11.9919L8.20039 12.9549ZM10.2965 10.7343L11.2495 11.2441L11.0575 10.1819C11.0392 10.0806 11.0463 9.97626 11.0783 9.87831C11.1102 9.78037 11.166 9.69183 11.2406 9.62058L12.0215 8.87379L10.9501 8.72801C10.8477 8.71423 10.7504 8.67541 10.6667 8.61502C10.583 8.55463 10.5157 8.47454 10.4706 8.38189L10 7.41096L9.52948 8.38189C9.4844 8.47454 9.41702 8.55463 9.33336 8.61502C9.24969 8.67541 9.15234 8.71423 9.04997 8.72801L7.97854 8.87379L8.75948 9.62058C8.83408 9.69183 8.88984 9.78037 8.92178 9.87831C8.95372 9.97626 8.96085 10.0806 8.94253 10.1819L8.75053 11.2441L9.70357 10.7343C9.79471 10.6855 9.89656 10.6599 10 10.6599C10.1035 10.6599 10.2054 10.6855 10.2965 10.7343Z" fill="#EFC07E"/>
</g>
<defs>
<clipPath id="clip0_264_83">
<rect width="20" height="20" fill="white" transform="translate(0 0.689941)"/>
</clipPath>
</defs>
</svg>
