<svg width="16" height="17" viewBox="0 0 16 17" fill="none" xmlns="http://www.w3.org/2000/svg">
<path d="M11.4966 12.4507C7.2334 12.4567 3.99789 9.18243 4.00245 4.95652C4.00245 4.68054 4.22617 4.45557 4.50214 4.45557H5.82101C6.06865 4.45557 6.27902 4.63752 6.31538 4.88247C6.40253 5.46955 6.57346 6.04108 6.82296 6.57962L6.87431 6.69045C6.94571 6.84456 6.89731 7.02767 6.7591 7.12637C6.35066 7.41805 6.19456 8.00518 6.51276 8.4633C6.91205 9.03819 7.41538 9.54141 7.99014 9.94053C8.44824 10.2586 9.03527 10.1026 9.32694 9.69419C9.42571 9.5559 9.60892 9.50748 9.76312 9.57891L9.87345 9.63002C10.412 9.8795 10.9836 10.0504 11.5707 10.1376C11.8157 10.1739 11.9976 10.3843 11.9976 10.6319V11.951C11.9976 12.227 11.7733 12.4507 11.4973 12.4507L11.4966 12.4507Z" fill="currentColor"/>
<rect x="0.5" y="0.953125" width="15" height="15" rx="7.5" stroke="currentColor"/>
</svg>
