<svg width="30" height="31" viewBox="0 0 30 31" fill="none" xmlns="http://www.w3.org/2000/svg">
<path d="M21.1325 9.82405C21.1384 9.82405 21.1464 9.82405 21.1544 9.82405C21.3625 9.82405 21.5558 9.8888 21.7141 10.0003L21.7112 9.99836C21.8267 10.099 21.9044 10.2404 21.9233 10.3998V10.4027C21.9432 10.5243 21.9542 10.6637 21.9542 10.8061C21.9542 10.8709 21.9522 10.9346 21.9472 10.9984V10.9894C21.7231 13.349 20.751 19.0711 20.257 21.7125C20.0478 22.831 19.6365 23.2055 19.238 23.2414C18.3725 23.3221 17.7151 22.6697 16.8765 22.1199C15.5637 21.2583 14.8217 20.7225 13.5478 19.8828C12.0747 18.9137 13.0299 18.3788 13.8685 17.5083C14.0886 17.2792 17.9044 13.8081 17.9791 13.4934C17.9831 13.4745 17.9851 13.4535 17.9851 13.4316C17.9851 13.3539 17.9562 13.2832 17.9094 13.2294C17.8576 13.1956 17.7928 13.1766 17.7251 13.1766C17.6803 13.1766 17.6374 13.1856 17.5976 13.2005L17.5996 13.1996C17.4681 13.2294 15.3712 14.6152 11.3088 17.3569C10.8655 17.7065 10.3058 17.9276 9.69622 17.9535H9.69024C8.82669 17.849 8.04283 17.6567 7.29881 17.3828L7.37251 17.4067C6.43825 17.1019 5.69622 16.9416 5.75996 16.4256C5.79382 16.1574 6.16368 15.8828 6.86952 15.6019C11.2175 13.7075 14.1169 12.4588 15.5677 11.8559C17.1683 11.0063 19.0239 10.3071 20.9751 9.85393L21.1315 9.82306L21.1325 9.82405ZM14.9651 0.844971C6.69622 0.864891 0 7.57306 0 15.845C0 24.1288 6.71514 30.845 15 30.845C23.2849 30.845 30 24.1298 30 15.845C30 7.57306 23.3038 0.864891 15.0369 0.844971H15.0349C15.0116 0.844971 14.9884 0.844971 14.9651 0.844971Z" fill="currentColor"/>
</svg>
