<svg width="40" height="37" viewBox="0 0 40 37" fill="none" xmlns="http://www.w3.org/2000/svg">
<path d="M4.20293 5.65027H4.87281V4.89336C4.87281 2.57934 6.7622 0.689941 9.07574 0.689941H35.7158C38.0293 0.689941 39.9187 2.57934 39.9187 4.89336V30.7318C39.9187 31.2829 39.4715 31.7296 38.9204 31.7296H35.0454V35.6916C35.0454 36.2427 34.5982 36.6899 34.0471 36.6899H0.998317C0.446742 36.6899 0 36.2427 0 35.6916V9.8532C0 7.53918 1.88892 5.65027 4.20293 5.65027ZM5.51431 19.9398C4.20101 19.9398 4.20101 17.9431 5.51431 17.9431H13.6066C14.9199 17.9431 14.9199 19.9398 13.6066 19.9398H5.51431ZM5.51431 28.3807C4.20101 28.3807 4.20101 26.3841 5.51431 26.3841H13.6066C14.9199 26.3841 14.9199 28.3807 13.6066 28.3807H5.51431ZM5.51431 24.1605C4.20101 24.1605 4.20101 22.1639 5.51431 22.1639H13.6066C14.9199 22.1639 14.9199 24.1605 13.6066 24.1605H5.51431ZM18.9151 17.9431H29.5311C30.0827 17.9431 30.5295 18.3904 30.5295 18.9414V27.3824C30.5295 27.934 30.0827 28.3807 29.5311 28.3807H18.9151C18.364 28.3807 17.9168 27.934 17.9168 27.3824V18.9414C17.9168 18.3904 18.364 17.9431 18.9151 17.9431ZM28.5328 19.9398H19.9134V26.3841H28.5328V19.9398ZM5.20943 9.89408H29.836C30.3871 9.89408 30.8343 10.3413 30.8343 10.8924V14.373C30.8343 14.9241 30.3871 15.3714 29.836 15.3714H5.20943C4.65833 15.3714 4.21111 14.9241 4.21111 14.373V10.8924C4.21111 10.3413 4.65833 9.89408 5.20943 9.89408ZM28.8377 11.8907H6.20774V13.3747H28.8377V11.8907ZM6.86944 5.65027H30.8425C33.1565 5.65027 35.0454 7.53967 35.0454 9.8532V29.7335H37.9221V4.89336C37.9221 3.68201 36.9272 2.68658 35.7158 2.68658H9.07574C7.86439 2.68658 6.86944 3.68201 6.86944 4.89336V5.65027ZM30.8425 7.6469H4.20293C2.99159 7.6469 1.99615 8.64185 1.99615 9.8532V34.6933H33.0488V9.8532C33.0488 8.64185 32.0539 7.6469 30.8425 7.6469Z" fill="currentColor"/>
</svg>
