<svg width="114" height="33" viewBox="0 0 114 33" fill="none" xmlns="http://www.w3.org/2000/svg">
<g clip-path="url(#clip0_3160_5259)">
<path d="M15.7192 0.925293C13.1109 2.25017 9.80557 4.85852 6.8867 7.81189C6.50718 8.19141 6.15526 8.54333 5.81024 8.92285L7.37663 10.4892C7.72165 10.1097 8.10807 9.7233 8.45309 9.37828C10.9579 6.87343 13.6008 4.72051 15.7192 3.46464C20.1355 6.10749 26.2561 12.2281 28.899 16.6444C27.65 18.7628 25.4902 21.4126 22.9853 23.9105C22.6058 24.29 22.2539 24.642 21.8744 24.987L23.4408 26.5534C23.8203 26.2083 24.2067 25.8219 24.5517 25.4769C27.5051 22.5235 30.1203 19.2527 31.4383 16.6444C28.8369 11.4277 20.9773 3.56814 15.7192 0.925293Z" fill="#CECECE"/>
<path d="M15.7194 6.10742C13.9805 7.28739 11.9656 8.99179 10.0128 10.9446C9.63328 11.3241 9.28136 11.676 8.93634 12.0556L10.5027 13.622C10.8478 13.2424 11.2342 12.856 11.5792 12.511C12.9731 11.1171 14.3946 9.86814 15.7194 8.86068C18.3968 10.9446 21.4261 13.9739 23.51 16.6512C22.5025 17.9761 21.2121 19.3976 19.8597 20.7915C19.4801 21.171 19.1282 21.5229 18.7487 21.8679L20.3151 23.4343C20.6946 23.0893 21.081 22.7374 21.4261 22.3579C23.372 20.4119 25.0764 18.3901 26.2632 16.6512C23.7929 13.0699 19.3076 8.58466 15.7263 6.11432L15.7194 6.10742Z" fill="#CECECE"/>
<path d="M15.7193 11.7451C14.8844 12.4766 14.0149 13.277 13.18 14.112C12.8005 14.4915 12.4485 14.8434 12.1035 15.2229L13.6699 16.7893C14.0149 16.4098 14.3668 16.0234 14.7464 15.6783C15.0569 15.3678 15.4088 15.0159 15.7193 14.7399C16.0298 15.0504 16.3818 15.3678 16.6923 15.6783C17.0028 15.9889 17.3202 16.3408 17.6307 16.6513C17.3202 16.9618 17.0028 17.3137 16.6923 17.6243C16.3128 18.0038 15.9263 18.3557 15.5813 18.7007L17.1477 20.2671C17.5272 19.9221 17.9136 19.5357 18.2587 19.1906C19.0936 18.3557 19.8941 17.4862 20.6255 16.6513C19.8941 15.8164 19.0936 14.9469 18.2587 14.112C17.4237 13.277 16.5543 12.4766 15.7193 11.7451Z" fill="#CECECE"/>
<path d="M0.000183105 16.6446C0.904135 14.8022 2.47053 12.6423 4.34743 10.5239L5.84482 12.0213L8.03914 14.2156L9.53653 15.713C8.9776 16.3755 8.07365 17.5209 7.41811 18.3904C9.29502 20.6882 11.7309 23.124 14.0632 25.0355C14.9326 24.373 16.0781 23.4691 16.7405 22.917L18.2379 24.4144L20.4323 26.6088L21.9296 28.1061C19.7698 29.983 17.6169 31.5494 15.809 32.4534C10.4681 29.7622 2.60853 21.9027 0.000183105 16.6446Z" fill="#CECECE"/>
<path d="M46.2708 14.8985H43.835V7.31496H40.4607V14.8985H38.0248V5.43115H46.2708V14.8916V14.8985Z" fill="#CECECE"/>
<path d="M47.4162 5.43115H53.0883C54.0268 5.43115 54.7237 5.63816 55.1377 6.05909C55.5518 6.48001 55.7657 7.17005 55.7657 8.10851V9.46788C55.7657 10.4063 55.5587 11.1033 55.1377 11.5173C54.7168 11.9313 54.0268 12.1452 53.0883 12.1452H49.852V14.8571H47.4162V5.43115ZM53.3643 8.14301C53.3643 7.58408 53.0883 7.34256 52.5639 7.34256H49.852V10.2959H52.5639C53.1228 10.2959 53.3643 10.0199 53.3643 9.49549V8.13611V8.14301Z" fill="#CECECE"/>
<path d="M65.3297 12.3592C65.3297 13.2977 65.1227 13.9946 64.7018 14.4087C64.2808 14.8227 63.5908 15.0366 62.6524 15.0366H59.2781C58.3396 15.0366 57.6427 14.8296 57.2286 14.4087C56.8146 13.9877 56.6007 13.2977 56.6007 12.3592V8.04649C56.6007 7.10804 56.8077 6.4111 57.2286 5.99708C57.6496 5.58305 58.3396 5.36914 59.2781 5.36914H62.6524C63.5908 5.36914 64.2877 5.57615 64.7018 5.99708C65.1158 6.418 65.3297 7.10804 65.3297 8.04649V12.3592ZM62.8939 8.01199C62.8939 7.45306 62.6179 7.21155 62.0934 7.21155H59.7956C59.2367 7.21155 58.9951 7.48756 58.9951 8.01199V12.3247C58.9951 12.8837 59.2712 13.1252 59.7956 13.1252H62.0934C62.6524 13.1252 62.8939 12.8492 62.8939 12.3247V8.01199Z" fill="#CECECE"/>
<path d="M68.7384 14.9676C67.8689 14.9676 67.2065 14.7606 66.7925 14.3397C66.3785 13.9256 66.1646 13.2977 66.1646 12.4283V8.15001C66.1646 7.21156 66.3716 6.54912 66.7925 6.10059C67.2065 5.68657 67.9034 5.47266 68.8419 5.47266H73.7136V7.34956H69.4353C68.8764 7.34956 68.6349 7.62558 68.6349 8.15001V12.4628C68.6349 12.6698 68.7039 12.8423 68.8074 12.9527C68.9454 13.0562 69.0834 13.1252 69.2973 13.1252H71.3122C71.5538 13.1252 71.8022 13.0907 72.0437 13.0217H73.7481V14.7951C73.1547 14.8986 72.5336 14.9676 71.9402 14.9676H68.7384Z" fill="#CECECE"/>
<path d="M79.5582 14.8984H77.1224V7.3149H74.2725V5.43799H82.3736V7.3149H79.5237V14.8984H79.5582Z" fill="#CECECE"/>
<path d="M85.61 8.70177H88.7082C89.6467 8.70177 90.3436 8.90879 90.7577 9.32971C91.1717 9.75063 91.3856 10.4407 91.3856 11.3791V12.1796C91.3856 13.118 91.1786 13.815 90.7577 14.229C90.3436 14.643 89.6467 14.8569 88.7082 14.8569H83.181V5.39648H85.6169V8.70177H85.61ZM88.9843 11.3791C88.9843 10.8202 88.7082 10.5787 88.1838 10.5787H85.61V13.0145H88.1838C88.7427 13.0145 88.9843 12.7385 88.9843 12.2141V11.3791ZM94.9324 14.8914H92.4966V5.43099H94.9324V14.8914Z" fill="#CECECE"/>
<path d="M103.558 14.8985H96.0435V5.43115H103.558V7.30806H98.4793V9.11596H102.482V10.9929H98.4793V12.9388H103.558V14.8847V14.8985Z" fill="#CECECE"/>
<path d="M45.4359 25.4009C45.4359 26.2704 45.2288 26.8983 44.8079 27.3123C44.3939 27.7263 43.7315 27.9403 42.862 27.9403H39.3152C38.6873 27.9403 38.0662 27.8713 37.4383 27.7677V26.0288H42.3445C42.5515 26.0288 42.724 25.9598 42.8344 25.8563C42.9448 25.7528 43.0069 25.5803 43.0069 25.4009V24.8765C43.0069 24.3521 42.7309 24.1105 42.2065 24.1105H38.9702V22.2336H41.9236C42.4825 22.2336 42.724 21.9576 42.724 21.4332V21.1227C42.724 20.5637 42.448 20.3222 41.9236 20.3222H37.6108V18.4453H42.6205C43.4899 18.4453 44.1524 18.6523 44.5664 19.0387C44.9804 19.4528 45.1943 20.0462 45.1943 20.8812C45.1943 21.4401 45.0563 21.8541 44.8148 22.206C44.5733 22.5579 44.2214 22.7995 43.8419 22.903C44.0489 22.972 44.2214 23.041 44.4353 23.1445C44.6423 23.248 44.8148 23.4205 44.9597 23.5999C45.0977 23.8069 45.2357 24.0139 45.3047 24.2968C45.4082 24.5729 45.4428 24.8903 45.4428 25.2698V25.4078L45.4359 25.4009Z" fill="#CECECE"/>
<path d="M46.3399 18.4106H51.7291C52.5985 18.4106 53.261 18.6177 53.675 19.0041C54.089 19.4181 54.3029 20.0115 54.3029 20.8465C54.3029 21.4054 54.1994 21.8194 53.9579 22.1714C53.7164 22.5233 53.4335 22.7648 53.0884 22.8683C53.2955 22.9373 53.468 23.0063 53.6819 23.1098C53.8889 23.2133 54.0614 23.3858 54.2063 23.5997C54.3512 23.8137 54.4823 24.0552 54.5513 24.3312C54.6548 24.6072 54.6893 24.9591 54.6893 25.3041C54.6893 26.1736 54.4823 26.836 54.0614 27.2501C53.6474 27.6641 52.9849 27.878 52.1155 27.878H46.3054V18.4175H46.3399V18.4106ZM51.9085 21.1225C51.9085 20.5636 51.6325 20.3221 51.108 20.3221H48.8102V22.199H51.108C51.667 22.199 51.9085 21.9229 51.9085 21.3985V21.1225ZM52.288 24.9108C52.288 24.3519 52.012 24.1104 51.4876 24.1104H48.7757V25.9873H51.4876C52.0465 25.9873 52.288 25.7113 52.288 25.1868V24.9108Z" fill="#CECECE"/>
<path d="M64.2875 25.3319C64.2875 26.2704 64.0805 26.9673 63.6596 27.3813C63.2387 27.7953 62.5486 28.0093 61.6102 28.0093H58.2359C57.2974 28.0093 56.6005 27.8022 56.1865 27.3813C55.7724 26.9604 55.5585 26.2704 55.5585 25.3319V21.0192C55.5585 20.0807 55.7655 19.3838 56.1865 18.9697C56.6074 18.5557 57.2974 18.3418 58.2359 18.3418H61.6102C62.5486 18.3418 63.2456 18.5488 63.6596 18.9697C64.0736 19.3907 64.2875 20.0807 64.2875 21.0192V25.3319ZM61.8517 20.9846C61.8517 20.4257 61.5757 20.1842 61.0512 20.1842H58.7534C58.1945 20.1842 57.953 20.4602 57.953 20.9846V25.2974C57.953 25.8563 58.229 26.0978 58.7534 26.0978H61.0512C61.6102 26.0978 61.8517 25.8218 61.8517 25.2974V20.9846Z" fill="#CECECE"/>
<path d="M73.5065 27.8711H71.0707V24.0069H67.6964V27.8711H65.2606V18.4106H67.6964V22.13H71.0707V18.4106H73.5065V27.8711Z" fill="#CECECE"/>
<path d="M80.3242 23.0687L82.967 27.8714H80.3932L78.3092 24.0072H77.0948V27.8714H74.6589V18.411H77.0948V22.1303H78.3092L79.6686 19.5564C79.8756 19.1769 80.124 18.8595 80.4001 18.618C80.6761 18.3765 81.0625 18.2729 81.5455 18.2729C81.6835 18.2729 81.856 18.2729 82.001 18.3075C82.139 18.3075 82.277 18.342 82.3805 18.342C82.5185 18.3765 82.6565 18.3765 82.76 18.411V20.2189H82.2011C82.0631 20.2189 81.9596 20.2534 81.856 20.3569C81.7525 20.4604 81.6835 20.5294 81.6145 20.6329L80.3242 23.0687Z" fill="#CECECE"/>
<path d="M91.9374 27.8711H89.5016V22.061L86.2653 27.8711H83.6915V18.4106H86.1273V24.2208L89.3636 18.4106H91.9374V27.8711Z" fill="#CECECE"/>
</g>
<defs>
<clipPath id="clip0_3160_5259">
<rect width="113.558" height="31.5279" fill="white" transform="translate(0 0.925293)"/>
</clipPath>
</defs>
</svg>
