<svg width="158" height="46" viewBox="0 0 158 46" fill="none" xmlns="http://www.w3.org/2000/svg">
<g clip-path="url(#clip0_3002_1098)">
<path d="M22.78 0C19 1.92 14.21 5.7 9.98004 9.98C9.43004 10.53 8.92004 11.04 8.42004 11.59L10.69 13.86C11.19 13.31 11.75 12.75 12.25 12.25C15.88 8.62 19.71 5.5 22.78 3.68C29.18 7.51 38.05 16.38 41.88 22.78C40.07 25.85 36.94 29.69 33.31 33.31C32.76 33.86 32.25 34.37 31.7 34.87L33.97 37.14C34.52 36.64 35.08 36.08 35.58 35.58C39.86 31.3 43.65 26.56 45.56 22.78C41.79 15.22 30.4 3.83 22.78 0Z" fill="#1B75BB"/>
<path d="M22.78 7.51001C20.26 9.22001 17.34 11.69 14.51 14.52C13.96 15.07 13.45 15.58 12.95 16.13L15.22 18.4C15.72 17.85 16.28 17.29 16.78 16.79C18.8 14.77 20.86 12.96 22.78 11.5C26.66 14.52 31.0499 18.91 34.07 22.79C32.61 24.71 30.74 26.77 28.78 28.79C28.23 29.34 27.72 29.85 27.17 30.35L29.44 32.62C29.99 32.12 30.5499 31.61 31.0499 31.06C33.8699 28.24 36.34 25.31 38.06 22.79C34.48 17.6 27.98 11.1 22.79 7.52001L22.78 7.51001Z" fill="#1B75BB"/>
<path d="M22.78 15.6799C21.57 16.7399 20.31 17.8999 19.1 19.1099C18.55 19.6599 18.04 20.1699 17.54 20.7199L19.81 22.9899C20.31 22.4399 20.82 21.8799 21.37 21.3799C21.82 20.9299 22.33 20.4199 22.78 20.0199C23.23 20.4699 23.74 20.9299 24.19 21.3799C24.64 21.8299 25.1 22.3399 25.55 22.7899C25.1 23.2399 24.64 23.7499 24.19 24.1999C23.64 24.7499 23.08 25.2599 22.58 25.7599L24.85 28.0299C25.4 27.5299 25.96 26.9699 26.46 26.4699C27.67 25.2599 28.83 23.9999 29.89 22.7899C28.83 21.5799 27.67 20.3199 26.46 19.1099C25.25 17.8999 23.99 16.7399 22.78 15.6799Z" fill="#1B75BB"/>
<path d="M0 22.7799C1.31 20.1099 3.58 16.9799 6.3 13.9099L8.47 16.0799L11.65 19.2599L13.82 21.4299C13.01 22.3899 11.7 24.0499 10.75 25.3099C13.47 28.6399 17 32.1699 20.38 34.9399C21.64 33.9799 23.3 32.6699 24.26 31.8699L26.43 34.0399L29.61 37.2199L31.78 39.3899C28.65 42.1099 25.53 44.3799 22.91 45.6899C15.17 41.7899 3.78 30.3999 0 22.7799Z" fill="#1B75BB"/>
<path d="M64.36 20.25H60.83V9.26003H55.94V20.25H52.41V6.53003H64.36V20.24V20.25Z" fill="#1B75BB"/>
<path d="M66.02 6.53003H74.24C75.6 6.53003 76.61 6.83003 77.21 7.44003C77.81 8.05003 78.12 9.05003 78.12 10.41V12.38C78.12 13.74 77.82 14.75 77.21 15.35C76.6 15.95 75.6 16.26 74.24 16.26H69.55V20.19H66.02V6.53003ZM74.64 10.46C74.64 9.65003 74.24 9.30003 73.48 9.30003H69.55V13.58H73.48C74.29 13.58 74.64 13.18 74.64 12.42V10.45V10.46Z" fill="#1B75BB"/>
<path d="M91.9801 16.5699C91.9801 17.9299 91.6801 18.9399 91.0701 19.5399C90.4601 20.1399 89.4601 20.4499 88.1001 20.4499H83.2101C81.8501 20.4499 80.8401 20.1499 80.2401 19.5399C79.6401 18.9299 79.3301 17.9299 79.3301 16.5699V10.3199C79.3301 8.95994 79.6301 7.94994 80.2401 7.34994C80.8501 6.74994 81.8501 6.43994 83.2101 6.43994H88.1001C89.4601 6.43994 90.4701 6.73994 91.0701 7.34994C91.6701 7.95994 91.9801 8.95994 91.9801 10.3199V16.5699ZM88.4501 10.2699C88.4501 9.45994 88.0501 9.10994 87.2901 9.10994H83.9601C83.1501 9.10994 82.8001 9.50994 82.8001 10.2699V16.5199C82.8001 17.3299 83.2001 17.6799 83.9601 17.6799H87.2901C88.1001 17.6799 88.4501 17.2799 88.4501 16.5199V10.2699Z" fill="#1B75BB"/>
<path d="M96.9201 20.3498C95.6601 20.3498 94.7001 20.0498 94.1001 19.4398C93.5001 18.8398 93.1901 17.9298 93.1901 16.6698V10.4698C93.1901 9.10984 93.4901 8.14984 94.1001 7.49984C94.7001 6.89984 95.7101 6.58984 97.0701 6.58984H104.13V9.30984H97.9301C97.1201 9.30984 96.7701 9.70984 96.7701 10.4698V16.7198C96.7701 17.0198 96.8701 17.2698 97.0201 17.4298C97.2201 17.5798 97.4201 17.6798 97.7301 17.6798H100.65C101 17.6798 101.36 17.6298 101.71 17.5298H104.18V20.0998C103.32 20.2498 102.42 20.3498 101.56 20.3498H96.9201Z" fill="#1B75BB"/>
<path d="M112.6 20.25H109.07V9.26004H104.94V6.54004H116.68V9.26004H112.55V20.25H112.6Z" fill="#1B75BB"/>
<path d="M121.37 11.27H125.86C127.22 11.27 128.23 11.57 128.83 12.18C129.43 12.79 129.74 13.79 129.74 15.15V16.31C129.74 17.67 129.44 18.68 128.83 19.28C128.23 19.88 127.22 20.19 125.86 20.19H117.85V6.47998H121.38V11.27H121.37ZM126.26 15.15C126.26 14.34 125.86 13.99 125.1 13.99H121.37V17.52H125.1C125.91 17.52 126.26 17.12 126.26 16.36V15.15ZM134.88 20.24H131.35V6.52998H134.88V20.24Z" fill="#1B75BB"/>
<path d="M147.38 20.25H136.49V6.53003H147.38V9.25003H140.02V11.87H145.82V14.59H140.02V17.41H147.38V20.23V20.25Z" fill="#1B75BB"/>
<path d="M63.1501 35.4699C63.1501 36.7299 62.8501 37.6399 62.2401 38.2399C61.6401 38.8399 60.6801 39.1499 59.4201 39.1499H54.2801C53.3701 39.1499 52.4701 39.0499 51.5601 38.8999V36.3799H58.6701C58.9701 36.3799 59.2201 36.2799 59.3801 36.1299C59.5401 35.9799 59.6301 35.7299 59.6301 35.4699V34.7099C59.6301 33.9499 59.2301 33.5999 58.4701 33.5999H53.7801V30.8799H58.0601C58.8701 30.8799 59.2201 30.4799 59.2201 29.7199V29.2699C59.2201 28.4599 58.8201 28.1099 58.0601 28.1099H51.8101V25.3899H59.0701C60.3301 25.3899 61.2901 25.6899 61.8901 26.2499C62.4901 26.8499 62.8001 27.7099 62.8001 28.9199C62.8001 29.7299 62.6001 30.3299 62.2501 30.8399C61.9001 31.3499 61.3901 31.6999 60.8401 31.8499C61.1401 31.9499 61.3901 32.0499 61.7001 32.1999C62.0001 32.3499 62.2501 32.5999 62.4601 32.8599C62.6601 33.1599 62.8601 33.4599 62.9601 33.8699C63.1101 34.2699 63.1601 34.7299 63.1601 35.2799V35.4799L63.1501 35.4699Z" fill="#1B75BB"/>
<path d="M64.46 25.3398H72.27C73.53 25.3398 74.49 25.6398 75.09 26.1998C75.69 26.7998 76 27.6598 76 28.8698C76 29.6798 75.85 30.2798 75.5 30.7898C75.15 31.2998 74.74 31.6498 74.24 31.7998C74.54 31.8998 74.79 31.9998 75.1 32.1498C75.4 32.2998 75.65 32.5498 75.86 32.8598C76.07 33.1698 76.26 33.5198 76.36 33.9198C76.51 34.3198 76.56 34.8298 76.56 35.3298C76.56 36.5898 76.26 37.5498 75.65 38.1498C75.05 38.7498 74.09 39.0598 72.83 39.0598H64.41V25.3498H64.46V25.3398ZM72.53 29.2698C72.53 28.4598 72.13 28.1098 71.37 28.1098H68.04V30.8298H71.37C72.18 30.8298 72.53 30.4298 72.53 29.6698V29.2698ZM73.08 34.7598C73.08 33.9498 72.68 33.5998 71.92 33.5998H67.99V36.3198H71.92C72.73 36.3198 73.08 35.9198 73.08 35.1598V34.7598Z" fill="#1B75BB"/>
<path d="M90.4701 35.37C90.4701 36.73 90.1701 37.74 89.5601 38.34C88.9501 38.94 87.9501 39.25 86.5901 39.25H81.7001C80.3401 39.25 79.3301 38.95 78.7301 38.34C78.1301 37.73 77.8201 36.73 77.8201 35.37V29.12C77.8201 27.76 78.1201 26.75 78.7301 26.15C79.3401 25.55 80.3401 25.24 81.7001 25.24H86.5901C87.9501 25.24 88.9601 25.54 89.5601 26.15C90.1601 26.76 90.4701 27.76 90.4701 29.12V35.37ZM86.9401 29.07C86.9401 28.26 86.5401 27.91 85.7801 27.91H82.4501C81.6401 27.91 81.2901 28.31 81.2901 29.07V35.32C81.2901 36.13 81.6901 36.48 82.4501 36.48H85.7801C86.5901 36.48 86.9401 36.08 86.9401 35.32V29.07Z" fill="#1B75BB"/>
<path d="M103.83 39.0498H100.3V33.4498H95.41V39.0498H91.88V25.3398H95.41V30.7298H100.3V25.3398H103.83V39.0498Z" fill="#1B75BB"/>
<path d="M113.71 32.0899L117.54 39.0499H113.81L110.79 33.4499H109.03V39.0499H105.5V25.3399H109.03V30.7299H110.79L112.76 26.9999C113.06 26.4499 113.42 25.9899 113.82 25.6399C114.22 25.2899 114.78 25.1399 115.48 25.1399C115.68 25.1399 115.93 25.1399 116.14 25.1899C116.34 25.1899 116.54 25.2399 116.69 25.2399C116.89 25.2899 117.09 25.2899 117.24 25.3399V27.9599H116.43C116.23 27.9599 116.08 28.0099 115.93 28.1599C115.78 28.3099 115.68 28.4099 115.58 28.5599L113.71 32.0899Z" fill="#1B75BB"/>
<path d="M130.54 39.0498H127.01V30.6298L122.32 39.0498H118.59V25.3398H122.12V33.7598L126.81 25.3398H130.54V39.0498Z" fill="#1B75BB"/>
</g>
<defs>
<clipPath id="clip0_3002_1098">
<rect width="157.38" height="45.69" fill="white"/>
</clipPath>
</defs>
</svg>
