<svg width="294" height="145" viewBox="0 0 294 145" fill="none" xmlns="http://www.w3.org/2000/svg">
<g filter="url(#filter0_d_3120_3260)">
<path d="M25.7724 74.0099C29.7073 65.172 31.6747 60.7531 35.4724 58.1254C36.6988 57.2767 38.0359 56.5807 39.4346 56.0628C43.7653 54.4591 48.5135 55.3821 58.01 57.228L78.0747 61.1282C87.5712 62.9741 92.3194 63.8971 94.646 66.7948C95.3974 67.7306 95.9511 68.7942 96.2867 69.9465C97.3258 73.5144 95.3584 77.9333 91.4235 86.7711L83.1098 105.444C79.1749 114.282 77.2075 118.701 73.4099 121.329C72.1834 122.177 70.8463 122.873 69.4476 123.391C65.1169 124.995 60.3687 124.072 50.8722 122.226L30.8075 118.326C21.311 116.48 16.5628 115.557 14.2362 112.659C13.4848 111.723 12.9312 110.66 12.5955 109.508C11.5564 105.94 13.5238 101.521 17.4587 92.6829L25.7724 74.0099Z" fill="url(#paint0_linear_3120_3260)"/>
<g filter="url(#filter1_bi_3120_3260)">
<path d="M24.8757 71.848C28.8106 63.0102 30.778 58.5912 34.5756 55.9635C35.8021 55.1149 37.1392 54.4189 38.5378 53.901C42.8685 52.2973 47.6168 53.2203 57.1133 55.0662L77.1779 58.9664C86.6744 60.8123 91.4227 61.7353 93.7493 64.633C94.5007 65.5688 95.0543 66.6324 95.3899 67.7847C96.4291 71.3525 94.4617 75.7715 90.5268 84.6093L82.213 103.282C78.2782 112.12 76.3107 116.539 72.5131 119.167C71.2866 120.015 69.9496 120.711 68.5509 121.229C64.2202 122.833 59.472 121.91 49.9755 120.064L29.9108 116.164C20.4143 114.318 15.6661 113.395 13.3395 110.497C12.5881 109.562 12.0344 108.498 11.6988 107.346C10.6596 103.778 12.6271 99.3589 16.5619 90.5211L24.8757 71.848Z" fill="url(#paint1_linear_3120_3260)" fill-opacity="0.6"/>
</g>
<g filter="url(#filter2_di_3120_3260)">
<path fill-rule="evenodd" clip-rule="evenodd" d="M41.2858 102.703C42.0456 102.997 42.8352 103.239 43.6487 103.428C46.4942 104.092 49.5892 104.046 52.6307 103.294L61.8192 106.236C62.0339 106.303 62.2724 106.317 62.5117 106.275C62.751 106.234 62.983 106.138 63.1855 105.998C63.388 105.857 63.5541 105.677 63.6679 105.474C63.7816 105.271 63.8392 105.052 63.835 104.839L63.6805 97.1987C64.4706 96.0261 65.397 94.4197 66.0646 93.2221C66.9824 91.6354 67.6347 89.9622 67.9973 88.2644C68.7217 84.5339 68.024 80.8727 66.0213 77.8949C64.0186 74.9171 60.8326 72.8039 56.9978 71.9097C54.6604 71.3695 52.1519 71.2997 49.6351 71.7046C47.1183 72.1095 44.6494 72.9801 42.3885 74.26C40.1276 75.5399 38.1253 77.2005 36.5114 79.1341C34.8975 81.0676 33.7081 83.2309 33.0203 85.4836C31.948 89.0542 32.1772 92.6795 33.6723 95.7942C35.1674 98.909 37.8444 101.338 41.2858 102.703ZM49.3138 75.385C51.4562 74.9611 53.6087 74.9796 55.6037 75.4392C58.5854 76.1343 61.0626 77.7775 62.6193 80.0931C64.1761 82.4086 64.7178 85.2556 64.1534 88.1562C63.8667 89.4765 63.3553 90.7771 62.638 92.01C61.9861 93.1757 61.0644 94.7775 60.3626 95.7675C60.2081 95.9853 60.1279 96.2323 60.1333 96.473L60.2437 101.976L53.3238 99.7612C53.0837 99.6854 52.8128 99.6822 52.5478 99.7521C50.4241 100.317 48.2531 100.445 46.2039 100.128C44.1547 99.811 42.2824 99.0565 40.7328 97.9235C39.1832 96.7905 37.998 95.3095 37.2695 93.5957C36.5409 91.882 36.2887 89.9816 36.5325 88.0426C36.7762 86.1035 37.5092 84.1781 38.6746 82.416C39.84 80.654 41.4063 79.1029 43.2516 77.8834C45.0969 76.6639 47.1715 75.809 49.3138 75.385Z" fill="white"/>
</g>
</g>
<g filter="url(#filter3_d_3120_3260)">
<path d="M227.275 82.8134C230.483 75.6075 232.087 72.0045 235.183 69.862C236.183 69.1701 237.274 68.6026 238.414 68.1803C241.945 66.8728 245.817 67.6253 253.559 69.1304L269.919 72.3104C277.662 73.8155 281.534 74.568 283.431 76.9306C284.043 77.6937 284.495 78.5609 284.768 79.5004C285.616 82.4094 284.011 86.0124 280.803 93.2183L274.025 108.443C270.816 115.649 269.212 119.252 266.116 121.395C265.116 122.087 264.025 122.654 262.885 123.076C259.354 124.384 255.483 123.631 247.74 122.126L231.38 118.946C223.637 117.441 219.766 116.689 217.869 114.326C217.256 113.563 216.804 112.696 216.531 111.756C215.684 108.847 217.288 105.244 220.496 98.0384L227.275 82.8134Z" fill="url(#paint2_linear_3120_3260)"/>
<g filter="url(#filter4_bi_3120_3260)">
<path d="M226.543 81.0505C229.751 73.8445 231.356 70.2416 234.452 68.0991C235.452 67.4072 236.542 66.8396 237.683 66.4174C241.214 65.1098 245.085 65.8624 252.828 67.3675L269.188 70.5475C276.931 72.0525 280.802 72.8051 282.699 75.1677C283.312 75.9307 283.763 76.7979 284.037 77.7374C284.884 80.6465 283.28 84.2494 280.072 91.4554L273.293 106.68C270.085 113.886 268.481 117.489 265.384 119.632C264.384 120.324 263.294 120.891 262.154 121.314C258.623 122.621 254.751 121.869 247.008 120.363L230.649 117.183C222.906 115.678 219.034 114.926 217.137 112.563C216.524 111.8 216.073 110.933 215.799 109.993C214.952 107.084 216.556 103.481 219.765 96.2755L226.543 81.0505Z" fill="url(#paint3_linear_3120_3260)" fill-opacity="0.6"/>
</g>
<g filter="url(#filter5_di_3120_3260)">
<path d="M232.733 102.633L254.083 106.397C254.99 106.563 255.996 106.427 256.927 106.012C257.858 105.598 258.656 104.931 259.183 104.127L264.42 96.0297C264.74 95.5341 264.944 95.0022 265.017 94.4718C265.091 93.9414 265.031 93.4256 264.844 92.9613C264.65 92.4809 264.328 92.0656 263.901 91.7448C263.474 91.424 262.952 91.2058 262.374 91.1055L256.254 90.0264L258.289 85.2304C259.338 82.7593 257.106 81.1555 254.588 80.7115C254.247 80.6515 253.868 80.7203 253.532 80.9028C253.196 81.0852 252.931 81.3663 252.796 81.6843C251.825 83.9708 250.37 86.2955 249.687 86.6571L244.732 89.2836L238.841 88.2447C238.5 88.1847 238.12 88.2535 237.784 88.436C237.448 88.6184 237.184 88.8996 237.049 89.2175L231.959 101.207C231.824 101.525 231.83 101.854 231.975 102.122C232.12 102.389 232.393 102.573 232.733 102.633ZM245.814 91.3056L250.746 88.6958C252.401 87.8186 253.885 85.2386 254.747 83.4936C255.376 83.7709 255.976 84.2001 255.728 84.7852L253.183 90.7801C253.048 91.0981 253.054 91.4269 253.199 91.6942C253.344 91.9615 253.617 92.1453 253.957 92.2053L261.359 93.5106C261.561 93.5447 261.743 93.62 261.892 93.7309C262.042 93.8419 262.155 93.9859 262.223 94.1526C262.286 94.3044 262.307 94.4737 262.283 94.6479C262.259 94.8221 262.191 94.9969 262.085 95.1593L256.855 103.258C256.669 103.53 256.391 103.753 256.071 103.888C255.751 104.024 255.408 104.063 255.101 103.999L241.448 101.592L245.814 91.3056ZM239.105 90.8689L242.954 91.5474L238.882 101.139L235.034 100.461L239.105 90.8689Z" fill="white"/>
</g>
</g>
<g filter="url(#filter6_d_3120_3260)">
<path opacity="0.6" d="M93.5485 33.3342C98.7111 21.7389 101.292 15.9412 106.275 12.4937C107.884 11.3803 109.638 10.467 111.473 9.78754C117.155 7.68355 123.385 8.89449 135.844 11.3164L162.169 16.4334C174.629 18.8553 180.859 20.0662 183.911 23.868C184.897 25.0958 185.623 26.4912 186.064 28.003C187.427 32.6841 184.846 38.4818 179.683 50.0771L168.775 74.5762C163.613 86.1715 161.032 91.9692 156.049 95.4167C154.44 96.5301 152.686 97.4434 150.851 98.1229C145.169 100.227 138.939 99.0159 126.48 96.594L100.155 91.477C87.6951 89.0551 81.4654 87.8442 78.4129 84.0424C77.4271 82.8146 76.7007 81.4192 76.2604 79.9074C74.897 75.2263 77.4782 69.4286 82.6408 57.8333L93.5485 33.3342Z" fill="url(#paint4_linear_3120_3260)" fill-opacity="0.8"/>
<g filter="url(#filter7_bi_3120_3260)">
<path d="M92.3708 30.4978C97.5334 18.9025 100.115 13.1048 105.097 9.65726C106.706 8.54384 108.461 7.63062 110.296 6.95112C115.977 4.84712 122.207 6.05806 134.667 8.47994L160.992 13.597C173.451 16.0189 179.681 17.2298 182.733 21.0316C183.719 22.2594 184.446 23.6548 184.886 25.1666C186.249 29.8477 183.668 35.6453 178.505 47.2407L167.598 71.7398C162.435 83.3351 159.854 89.1327 154.871 92.5803C153.262 93.6937 151.508 94.6069 149.673 95.2864C143.991 97.3904 137.761 96.1795 125.302 93.7576L98.9769 88.6406C86.5174 86.2187 80.2877 85.0078 77.2352 81.206C76.2494 79.9781 75.523 78.5827 75.0826 77.0709C73.7192 72.3899 76.3005 66.5922 81.4631 54.9969L92.3708 30.4978Z" fill="url(#paint5_linear_3120_3260)" fill-opacity="0.6"/>
</g>
<g filter="url(#filter8_di_3120_3260)">
<path fill-rule="evenodd" clip-rule="evenodd" d="M136.315 34.4028L129.646 40.5095C127.81 42.1898 125.296 43.097 122.948 42.9262L114.454 42.3087L118.013 48.2768C119.089 50.0803 118.894 52.4314 117.499 54.4836L112.87 61.2944L121.932 59.1266C124.299 58.5602 126.619 59.0112 128.146 60.3346L133.987 65.3992L135.677 58.0171C136.186 55.7927 137.95 53.7465 140.332 52.6151L148.215 48.8712L140.568 46.3514C138.454 45.6546 137.084 43.9924 136.918 41.9231L136.315 34.4028ZM140.47 30.946C140.306 28.9022 137.468 28.3504 135.655 30.0101L126.778 38.1384C126.043 38.8105 125.038 39.1734 124.098 39.1051L112.567 38.2667C110.173 38.0927 108.111 40.5435 109.165 42.3104L114.062 50.5212C114.492 51.2426 114.414 52.183 113.856 53.0039L107.568 62.2557C106.227 64.2284 107.826 66.2821 110.252 65.7019L122.314 62.8162C123.262 62.5897 124.19 62.7701 124.8 63.2994L132.576 70.0414C134.14 71.3969 137.168 70.2427 137.657 68.1045L139.953 58.0765C140.156 57.1868 140.862 56.3683 141.814 55.9158L152.66 50.7649C154.994 49.6565 155.269 46.8585 153.114 46.1484L142.732 42.7272C141.887 42.4485 141.339 41.7836 141.272 40.9559L140.47 30.946Z" fill="white"/>
</g>
</g>
<defs>
<filter id="filter0_d_3120_3260" x="10.4238" y="53.0765" width="93.1378" height="79.1392" filterUnits="userSpaceOnUse" color-interpolation-filters="sRGB">
<feFlood flood-opacity="0" result="BackgroundImageFix"/>
<feColorMatrix in="SourceAlpha" type="matrix" values="0 0 0 0 0 0 0 0 0 0 0 0 0 0 0 0 0 0 127 0" result="hardAlpha"/>
<feOffset dx="3" dy="4"/>
<feGaussianBlur stdDeviation="2"/>
<feComposite in2="hardAlpha" operator="out"/>
<feColorMatrix type="matrix" values="0 0 0 0 0.105882 0 0 0 0 0.458824 0 0 0 0 0.733333 0 0 0 0.4 0"/>
<feBlend mode="normal" in2="BackgroundImageFix" result="effect1_dropShadow_3120_3260"/>
<feBlend mode="normal" in="SourceGraphic" in2="effect1_dropShadow_3120_3260" result="shape"/>
</filter>
<filter id="filter1_bi_3120_3260" x="10.4238" y="52.0765" width="86.2411" height="70.9773" filterUnits="userSpaceOnUse" color-interpolation-filters="sRGB">
<feFlood flood-opacity="0" result="BackgroundImageFix"/>
<feGaussianBlur in="BackgroundImageFix" stdDeviation="0.5"/>
<feComposite in2="SourceAlpha" operator="in" result="effect1_backgroundBlur_3120_3260"/>
<feBlend mode="normal" in="SourceGraphic" in2="effect1_backgroundBlur_3120_3260" result="shape"/>
<feColorMatrix in="SourceAlpha" type="matrix" values="0 0 0 0 0 0 0 0 0 0 0 0 0 0 0 0 0 0 127 0" result="hardAlpha"/>
<feOffset/>
<feGaussianBlur stdDeviation="5"/>
<feComposite in2="hardAlpha" operator="arithmetic" k2="-1" k3="1"/>
<feColorMatrix type="matrix" values="0 0 0 0 1 0 0 0 0 1 0 0 0 0 1 0 0 0 0.4 0"/>
<feBlend mode="normal" in2="shape" result="effect2_innerShadow_3120_3260"/>
</filter>
<filter id="filter2_di_3120_3260" x="32.3552" y="70.4452" width="37.9208" height="38.3537" filterUnits="userSpaceOnUse" color-interpolation-filters="sRGB">
<feFlood flood-opacity="0" result="BackgroundImageFix"/>
<feColorMatrix in="SourceAlpha" type="matrix" values="0 0 0 0 0 0 0 0 0 0 0 0 0 0 0 0 0 0 127 0" result="hardAlpha"/>
<feOffset dx="1" dy="1.5"/>
<feGaussianBlur stdDeviation="0.5"/>
<feComposite in2="hardAlpha" operator="out"/>
<feColorMatrix type="matrix" values="0 0 0 0 0 0 0 0 0 0 0 0 0 0 0 0 0 0 0.25 0"/>
<feBlend mode="normal" in2="BackgroundImageFix" result="effect1_dropShadow_3120_3260"/>
<feBlend mode="normal" in="SourceGraphic" in2="effect1_dropShadow_3120_3260" result="shape"/>
<feColorMatrix in="SourceAlpha" type="matrix" values="0 0 0 0 0 0 0 0 0 0 0 0 0 0 0 0 0 0 127 0" result="hardAlpha"/>
<feOffset dy="-1"/>
<feGaussianBlur stdDeviation="0.5"/>
<feComposite in2="hardAlpha" operator="arithmetic" k2="-1" k3="1"/>
<feColorMatrix type="matrix" values="0 0 0 0 0.105882 0 0 0 0 0.458824 0 0 0 0 0.733333 0 0 0 0.6 0"/>
<feBlend mode="normal" in2="shape" result="effect2_innerShadow_3120_3260"/>
</filter>
<filter id="filter3_d_3120_3260" x="214.575" y="65.7452" width="77.4173" height="66.0035" filterUnits="userSpaceOnUse" color-interpolation-filters="sRGB">
<feFlood flood-opacity="0" result="BackgroundImageFix"/>
<feColorMatrix in="SourceAlpha" type="matrix" values="0 0 0 0 0 0 0 0 0 0 0 0 0 0 0 0 0 0 127 0" result="hardAlpha"/>
<feOffset dx="3" dy="4"/>
<feGaussianBlur stdDeviation="2"/>
<feComposite in2="hardAlpha" operator="out"/>
<feColorMatrix type="matrix" values="0 0 0 0 0.105882 0 0 0 0 0.458824 0 0 0 0 0.733333 0 0 0 0.4 0"/>
<feBlend mode="normal" in2="BackgroundImageFix" result="effect1_dropShadow_3120_3260"/>
<feBlend mode="normal" in="SourceGraphic" in2="effect1_dropShadow_3120_3260" result="shape"/>
</filter>
<filter id="filter4_bi_3120_3260" x="214.575" y="64.7452" width="70.6859" height="58.2405" filterUnits="userSpaceOnUse" color-interpolation-filters="sRGB">
<feFlood flood-opacity="0" result="BackgroundImageFix"/>
<feGaussianBlur in="BackgroundImageFix" stdDeviation="0.5"/>
<feComposite in2="SourceAlpha" operator="in" result="effect1_backgroundBlur_3120_3260"/>
<feBlend mode="normal" in="SourceGraphic" in2="effect1_backgroundBlur_3120_3260" result="shape"/>
<feColorMatrix in="SourceAlpha" type="matrix" values="0 0 0 0 0 0 0 0 0 0 0 0 0 0 0 0 0 0 127 0" result="hardAlpha"/>
<feOffset/>
<feGaussianBlur stdDeviation="5"/>
<feComposite in2="hardAlpha" operator="arithmetic" k2="-1" k3="1"/>
<feColorMatrix type="matrix" values="0 0 0 0 1 0 0 0 0 1 0 0 0 0 1 0 0 0 0.4 0"/>
<feBlend mode="normal" in2="shape" result="effect2_innerShadow_3120_3260"/>
</filter>
<filter id="filter5_di_3120_3260" x="231.862" y="79.6904" width="35.1857" height="29.2755" filterUnits="userSpaceOnUse" color-interpolation-filters="sRGB">
<feFlood flood-opacity="0" result="BackgroundImageFix"/>
<feColorMatrix in="SourceAlpha" type="matrix" values="0 0 0 0 0 0 0 0 0 0 0 0 0 0 0 0 0 0 127 0" result="hardAlpha"/>
<feOffset dx="1" dy="1.5"/>
<feGaussianBlur stdDeviation="0.5"/>
<feComposite in2="hardAlpha" operator="out"/>
<feColorMatrix type="matrix" values="0 0 0 0 0 0 0 0 0 0 0 0 0 0 0 0 0 0 0.25 0"/>
<feBlend mode="normal" in2="BackgroundImageFix" result="effect1_dropShadow_3120_3260"/>
<feBlend mode="normal" in="SourceGraphic" in2="effect1_dropShadow_3120_3260" result="shape"/>
<feColorMatrix in="SourceAlpha" type="matrix" values="0 0 0 0 0 0 0 0 0 0 0 0 0 0 0 0 0 0 127 0" result="hardAlpha"/>
<feOffset dy="-1"/>
<feGaussianBlur stdDeviation="0.5"/>
<feComposite in2="hardAlpha" operator="arithmetic" k2="-1" k3="1"/>
<feColorMatrix type="matrix" values="0 0 0 0 0.105882 0 0 0 0 0.458824 0 0 0 0 0.733333 0 0 0 0.6 0"/>
<feBlend mode="normal" in2="shape" result="effect2_innerShadow_3120_3260"/>
</filter>
<filter id="filter6_d_3120_3260" x="69.7219" y="5.86945" width="131.703" height="138.335" filterUnits="userSpaceOnUse" color-interpolation-filters="sRGB">
<feFlood flood-opacity="0" result="BackgroundImageFix"/>
<feColorMatrix in="SourceAlpha" type="matrix" values="0 0 0 0 0 0 0 0 0 0 0 0 0 0 0 0 0 0 127 0" result="hardAlpha"/>
<feOffset dx="5" dy="35"/>
<feGaussianBlur stdDeviation="5"/>
<feComposite in2="hardAlpha" operator="out"/>
<feColorMatrix type="matrix" values="0 0 0 0 0.582008 0 0 0 0 0.331901 0 0 0 0 0.800851 0 0 0 0.3 0"/>
<feBlend mode="normal" in2="BackgroundImageFix" result="effect1_dropShadow_3120_3260"/>
<feBlend mode="normal" in="SourceGraphic" in2="effect1_dropShadow_3120_3260" result="shape"/>
</filter>
<filter id="filter7_bi_3120_3260" x="72.7219" y="3.86945" width="114.525" height="94.4987" filterUnits="userSpaceOnUse" color-interpolation-filters="sRGB">
<feFlood flood-opacity="0" result="BackgroundImageFix"/>
<feGaussianBlur in="BackgroundImageFix" stdDeviation="1"/>
<feComposite in2="SourceAlpha" operator="in" result="effect1_backgroundBlur_3120_3260"/>
<feBlend mode="normal" in="SourceGraphic" in2="effect1_backgroundBlur_3120_3260" result="shape"/>
<feColorMatrix in="SourceAlpha" type="matrix" values="0 0 0 0 0 0 0 0 0 0 0 0 0 0 0 0 0 0 127 0" result="hardAlpha"/>
<feOffset/>
<feGaussianBlur stdDeviation="5"/>
<feComposite in2="hardAlpha" operator="arithmetic" k2="-1" k3="1"/>
<feColorMatrix type="matrix" values="0 0 0 0 0.913725 0 0 0 0 0.94902 0 0 0 0 0.976471 0 0 0 0.4 0"/>
<feBlend mode="normal" in2="shape" result="effect2_innerShadow_3120_3260"/>
</filter>
<filter id="filter8_di_3120_3260" x="107.08" y="28.0339" width="49.5011" height="45.091" filterUnits="userSpaceOnUse" color-interpolation-filters="sRGB">
<feFlood flood-opacity="0" result="BackgroundImageFix"/>
<feColorMatrix in="SourceAlpha" type="matrix" values="0 0 0 0 0 0 0 0 0 0 0 0 0 0 0 0 0 0 127 0" result="hardAlpha"/>
<feOffset dx="1" dy="1.5"/>
<feGaussianBlur stdDeviation="0.5"/>
<feComposite in2="hardAlpha" operator="out"/>
<feColorMatrix type="matrix" values="0 0 0 0 0 0 0 0 0 0 0 0 0 0 0 0 0 0 0.25 0"/>
<feBlend mode="normal" in2="BackgroundImageFix" result="effect1_dropShadow_3120_3260"/>
<feBlend mode="normal" in="SourceGraphic" in2="effect1_dropShadow_3120_3260" result="shape"/>
<feColorMatrix in="SourceAlpha" type="matrix" values="0 0 0 0 0 0 0 0 0 0 0 0 0 0 0 0 0 0 127 0" result="hardAlpha"/>
<feOffset dy="-1"/>
<feGaussianBlur stdDeviation="0.5"/>
<feComposite in2="hardAlpha" operator="arithmetic" k2="-1" k3="1"/>
<feColorMatrix type="matrix" values="0 0 0 0 0.89 0 0 0 0 0.4 0 0 0 0 1 0 0 0 1 0"/>
<feBlend mode="normal" in2="shape" result="effect2_innerShadow_3120_3260"/>
</filter>
<linearGradient id="paint0_linear_3120_3260" x1="50.1024" y1="60.7641" x2="80.7434" y2="115.258" gradientUnits="userSpaceOnUse">
<stop stop-color="#6FC0FF"/>
<stop offset="1" stop-color="#218ADB"/>
</linearGradient>
<linearGradient id="paint1_linear_3120_3260" x1="49.2057" y1="58.6022" x2="79.8467" y2="113.096" gradientUnits="userSpaceOnUse">
<stop stop-color="#6FC0FF"/>
<stop offset="1" stop-color="#218ADB"/>
</linearGradient>
<linearGradient id="paint2_linear_3120_3260" x1="247.112" y1="72.0135" x2="272.095" y2="116.445" gradientUnits="userSpaceOnUse">
<stop stop-color="#6FC0FF"/>
<stop offset="1" stop-color="#218ADB"/>
</linearGradient>
<linearGradient id="paint3_linear_3120_3260" x1="246.381" y1="70.2505" x2="271.364" y2="114.682" gradientUnits="userSpaceOnUse">
<stop stop-color="#6FC0FF"/>
<stop offset="1" stop-color="#218ADB"/>
</linearGradient>
<linearGradient id="paint4_linear_3120_3260" x1="113.337" y1="11.5117" x2="170.128" y2="89.2957" gradientUnits="userSpaceOnUse">
<stop stop-color="#CEB0FF"/>
<stop offset="1" stop-color="#9455CC"/>
</linearGradient>
<linearGradient id="paint5_linear_3120_3260" x1="112.159" y1="8.67532" x2="168.951" y2="86.4593" gradientUnits="userSpaceOnUse">
<stop stop-color="#CEB0FF"/>
<stop offset="1" stop-color="#9455CC"/>
</linearGradient>
</defs>
</svg>
